<svg id="cta.svg" xmlns="http://www.w3.org/2000/svg" width="199" height="54" viewBox="0 0 199 54">
  <defs>
    <style>
      .cls-1 {
        fill: #e38515;
      }

      .cls-2, .cls-4 {
        fill: #fed631;
      }

      .cls-3 {
        fill: #ed1d31;
      }

      .cls-4 {
        fill-rule: evenodd;
      }
    </style>
  </defs>
  <rect id="Rounded_Rectangle_1_copy_2" data-name="Rounded Rectangle 1 copy 2" class="cls-1" y="5.75" width="192.188" height="48.25" rx="3" ry="3"/>
  <rect id="Rounded_Rectangle_1" data-name="Rounded Rectangle 1" class="cls-2" x="3.438" y="2.875" width="192.124" height="48.25" rx="3" ry="3"/>
  <rect id="Rounded_Rectangle_1_copy" data-name="Rounded Rectangle 1 copy" class="cls-3" x="6.812" width="192.188" height="48.375" rx="3" ry="3"/>
  <path id="LEARN_MORE_copy" data-name="LEARN MORE copy" class="cls-4" d="M390.333,430.679h-4.59v27.437h11.572v-4.028h-6.982V430.679Zm14.08,3.99h7.329v-3.99h-11.92v27.437h12.229V454.05h-7.638v-8.209h5.4V442h-5.4v-7.334Zm9.18,23.447h4.437l0.81-5.7h4.667l0.81,5.7h4.437l-4.861-27.437h-5.439Zm7.6-20.939,1.7,11.324h-3.433Zm23.839,20.939-3.626-12.047c2.353-1.1,3.356-2.66,3.356-7.182,0-4.674-1.08-8.208-6.481-8.208h-7.213v27.437H435.7v-11.4h1.658l3.164,11.4h4.513ZM435.7,443.067v-8.588h1.813c2.083,0,2.7.95,2.7,4.294s-0.617,4.294-2.7,4.294H435.7Zm26.346,15.049V430.679h-4.166v16.188l-5.825-16.188h-4.166v27.437h4.166V441.243l6.211,16.873h3.78Zm30.012,0V430.679h-6.1l-3.318,17.176-3.279-17.176h-6.172v27.437h4.05V437.443l3.858,20.673h2.816l3.973-20.711v20.711h4.167Zm16.895-21.129c0-4.1-2.7-6.764-6.982-6.764s-6.982,2.66-6.982,6.764v14.82c0,4.1,2.7,6.765,6.982,6.765s6.982-2.66,6.982-6.765v-14.82Zm-4.629,14.934c0,1.444-.5,2.661-2.353,2.661s-2.353-1.217-2.353-2.661V436.873c0-1.444.5-2.66,2.353-2.66s2.353,1.216,2.353,2.66v15.048Zm21.448,6.195-3.626-12.047c2.353-1.1,3.356-2.66,3.356-7.182,0-4.674-1.08-8.208-6.481-8.208H511.8v27.437h4.629v-11.4h1.659l3.163,11.4h4.514Zm-9.336-15.049v-8.588h1.814c2.083,0,2.7.95,2.7,4.294s-0.617,4.294-2.7,4.294h-1.814Zm16.742-8.4H540.5v-3.99h-11.92v27.437h12.229V454.05h-7.638v-8.209h5.4V442h-5.4v-7.334Z" transform="translate(-360 -419)"/>
</svg>
