<svg xmlns="http://www.w3.org/2000/svg" width="377.89" height="211.28" viewBox="0 0 377.89 211.28">
  <title>eggo_logo</title>
  <g id="Layer_2" data-name="Layer 2">
    <g id="Front">
      <g id="_Group_" data-name="&lt;Group&gt;">
        <path id="_Compound_Path_" data-name="&lt;Compound Path&gt;" d="M356.47,49.24c.24,3.6.73,7.55.34,11.35-2.3,22.76-15.54,42.86-33.53,49.37C296.05,119.8,284.62,89,294,66.43c6.59-15.77,18.71-35.25,38.19-37.67,5.38-.66,8.6,2.25,13.08,2.59,4.26.31,8.71-2.3,11.51-4.3,3.08-2.2,7.95-9.73,13.07-7.75,2.67,1,4.58,6.23,4.83,9.46C375.68,41.4,362.84,44.17,356.47,49.24ZM316.4,67.64c-3.07,9-.35,20,8.42,14.1,4.89-3.25,10.58-13.31,11.52-21.84.72-6.47-.28-13.12-6.57-11.73C324.41,49.35,318.26,62.19,316.4,67.64Z" fill="#ed1b2f"/>
        <path id="_Compound_Path_2" data-name="&lt;Compound Path&gt;" d="M210.91,105.58c-3.54,4.93-9.76,8.46-13.39,9.94-1.29-10.78,5.95-31.95,6.32-44.68.19-6.6-1.57-9.52-5.48-12.17-2.32-1.58-6.55-1.25-8.45-.65-.65-2.14-3.17-6.14-9.67-6.88-17.36-2-40.68,14.4-50.13,28.54-15.37,23-7.84,45.41,4.13,50.91,6.71,3.09,15.06,3,22.32.08,8.82-3.6,16-10.43,17.36-10.22,1.09.16.38,5.11-1.25,6.4-2,1.61-7.81,4.17-10.39,5.46-10,5-28.28,16.25-36,25-9,10.22-16.26,28.6-9.57,41.21,10.22,19.27,41.8,16.21,57.13-6,6-8.64,13.37-25.23,16.26-37,1.86-7.53,1.92-13.69,3.32-15.34,4.53-5.35,14.59-5,19.1-11.53,1.86-2.68,2.71-6.66,3.6-10.66C215.71,111.28,213.78,106.52,210.91,105.58Zm-49,69.05c-2.9,5.84-8.36,13.38-15.6,13.26-5.25-.08-6.89-5.66-4.88-11.2,2.84-7.8,20.67-23.08,26.06-23.82C169.15,152.64,164.74,169,161.94,174.63ZM173.8,92.07c-2.85,4.78-13.48,14.82-18.27,13.51-9.19-2.51-4.74-12.26-1.51-17.65,8-13.34,24.87-17.69,26.32-16.26S178.51,84.16,173.8,92.07Z" fill="#ed1b2f"/>
        <path id="_Compound_Path_3" data-name="&lt;Compound Path&gt;" d="M299.53,109.07c-5-4.74-12.12-4.6-17.14-3.07-.09-11.1,5.2-32,5.58-44.74.19-6.59-2.64-10.44-6.55-13.09-2.33-1.58-7.44-1.57-9.34-1-.65-2.14-1.44-6.36-7.94-7.11-17.37-2-39.49,15.05-48.93,29.2-15.37,23-7,45.08,4.13,50.91,6.54,3.43,15.07,3,22.31.07,8.83-3.59,16-10.43,17.37-10.22,1.09.16,1.18,5.39-.46,6.69-2,1.61-8.29,4.84-10.87,6.13-10,5-25.57,16.32-33.3,25.08-9,10.23-14.91,27.11-8.22,39.72,10.21,19.28,41.8,16.91,57.13-5.29,6-8.64,11.56-22.3,13.93-34.84,1.44-7.62,1.29-15,2.65-16.73,4.74-5.85,19.74-2.71,24.25-9.19C306,118.92,304.84,114.08,299.53,109.07Zm-50.3,56.43c-2.9,5.85-9.21,13.22-16.45,13.1-5.24-.08-6.15-5.46-4.6-11.14,2.51-9.2,22.06-24.35,27.45-25.09C257.28,142.14,252,159.83,249.23,165.5Zm9.67-83.84c-2.56,5.66-13.16,17.09-19.71,16-9.4-1.6-3.3-14.73-.07-20.11,8-13.34,22.88-17.42,24.32-16S262.7,73.28,258.9,81.66Z" fill="#ed1b2f"/>
        <path id="_Path_" data-name="&lt;Path&gt;" d="M135.28.14c-15.61.83-52,12.26-70.35,24C43.9,37.58,29.86,54.59,29,71.48c-1.48,29.18,29.06,22.93,29.55,25.65s-18.77,6.5-42.37,34.56C-5,156.91-1.49,177.19,5,188c9.87,16.38,46.26,21.37,70.41,8.92,20.4-10.51,45.91-33.59,47.57-50.73.75-7.61-5.57-13.93-12.08-15.61-7.88-2-16.45,9.29-19.69,13.94-9.37,13.43-25.59,25.76-38.65,26-6.74.13-14.22-5.28-14.3-11.52-.15-10.48,9.05-21.05,14.86-26.2a182.57,182.57,0,0,1,37.9-26.2c4.92-2.53,23-10,25.65-13,3-3.35,1.89-11.52-1.12-16.91-5.38-9.66-16.34-1.86-26-.75s-17.47.93-18.4-8c-.8-7.8,12.78-19.7,18.4-22.85C114.1,31.35,128,32.7,144,30.24c12.07-1.86,14.8-14.07,14.31-17.66C156.83,1.62,149.51-.63,135.28.14Z" fill="#ed1b2f"/>
      </g>
      <g id="_Group_2" data-name="&lt;Group&gt;">
        <path d="M376,59.5a6.33,6.33,0,0,1-9.11,0A6.74,6.74,0,0,1,365,54.63a6.63,6.63,0,0,1,2-4.94,6.19,6.19,0,0,1,4.44-1.84,6.11,6.11,0,0,1,4.57,2A7,7,0,0,1,376,59.5Zm-8.31-8.8a5.85,5.85,0,0,0,0,7.93,5.11,5.11,0,0,0,7.53,0,5.63,5.63,0,0,0,1.56-4,5.55,5.55,0,0,0-1.55-3.93,5.07,5.07,0,0,0-7.56,0Zm1,7.7V50.89h2l1.47,0a3.31,3.31,0,0,1,1.41.38,1.92,1.92,0,0,1,1,1.8,1.66,1.66,0,0,1-.51,1.36,2.28,2.28,0,0,1-1.23.51,2.44,2.44,0,0,1,1,.43,2.1,2.1,0,0,1,.63,1.69v.67a1.8,1.8,0,0,0,0,.22.87.87,0,0,0,.05.22l.06.21h-1.78a5.51,5.51,0,0,1-.12-1,3.54,3.54,0,0,0-.12-.92.9.9,0,0,0-.53-.55,2.07,2.07,0,0,0-.64-.12l-.41,0h-.39V58.4Zm3.42-6a2.88,2.88,0,0,0-1.09-.16h-.45v2.18h.72a1.71,1.71,0,0,0,1-.27,1.06,1.06,0,0,0,.37-.9A.85.85,0,0,0,372,52.37Z" fill="#231f20"/>
      </g>
    </g>
  </g>
</svg>
