<svg xmlns="http://www.w3.org/2000/svg" width="62.11" height="38.1" viewBox="0 0 62.11 38.1">
  <title>L1_W1</title>
  <g id="Layer_2" data-name="Layer 2">
    <g id="_50_txt_tooGoodNotToShare.svg" data-name=" 50 txt tooGoodNotToShare.svg">
      <g>
        <path d="M19.33,5.3c0-.93,0-1.72,0-2.59s.3-1.87-.8-2a6.25,6.25,0,0,0-1.33.1A8.94,8.94,0,0,1,15.72.62,15.82,15.82,0,0,0,12.8.67C9.28,1,5.7.5,2.24.72,1.31.78.12.39.06,1.64a5.26,5.26,0,0,0,0,1.05c0,.09,0,.13,0,.22s.18.19.18.25C.21,3.54,0,4,0,4.38c0,.74-.13,2,.64,2.32a9.34,9.34,0,0,0,2.8.12c.69,0,2.13-.35,2.69.21s.18,2,.21,2.56c.08,1.67-.07,3.36,0,5,.09,1.91-.09,3.87,0,5.77.08,1.72-.16,3.46,0,5.14s0,3.53,0,5.28,0,3.64,0,5.47c0,1.17.73,1.31,1.75,1.29.77,0,1.58,0,2.37,0s2,.33,2.46-.37a6.23,6.23,0,0,0,.12-2.25c0-4,0-8,0-12A7.54,7.54,0,0,0,13,21.6a7.31,7.31,0,0,1,.08-1.4c0-.82,0-1.72,0-2.54s0-1.72,0-2.59c0-.41,0-.78,0-1.18s.07-1,0-1.51a17.63,17.63,0,0,1,0-2.72,9,9,0,0,1,.09-2.5c.27-.63,1.48-.5,2.08-.44.84.09,1.75.07,2.66.11S19.54,6.41,19.33,5.3Z" fill="#ed1b2f"/>
        <path d="M1.38,1c0,.05.15,0,.05.08S1.41,1,1.38,1Z" fill="#ed1b2f"/>
        <path d="M10.68,37.14Z" fill="#ed1b2f"/>
        <path d="M39.83,23.61a7.19,7.19,0,0,1,0-2.12c0-.62-.12-1.19-.09-1.77.07-1.48.06-3,0-4.46-.13-3.07.33-5.91-.35-8.91a8.55,8.55,0,0,0-6.06-6A11.38,11.38,0,0,0,31.5.11a13.1,13.1,0,0,0-2.8,0c-.52.11-1.13.25-1.7.41a7.18,7.18,0,0,0-2,.88,8.73,8.73,0,0,0-4,7.84c0,.71-.09,1.39-.05,2.1a14.44,14.44,0,0,1,0,1.74c0,.7,0,1.41,0,2.13,0,.57-.11,1.24-.08,1.83.08,1.58.08,3.17.08,4.78,0,.66.11,1.43.08,2,0,.76-.17,1.53-.17,2.32,0,1.35.14,2.71.19,4.05a9.37,9.37,0,0,0,.4,2.15,7.39,7.39,0,0,0,.33.79,4.74,4.74,0,0,0,.6,1.11,18.39,18.39,0,0,0,1.52,1.54c.24.23.35.46.67.64s.67.52,1,.68a9.22,9.22,0,0,0,2,.59,14,14,0,0,0,2.1.38c3.11.16,6.51-.9,8.36-3.55.28-.4,1.09-1.36.52-1.74.61-.12.56-.26.77-.85a6.17,6.17,0,0,0,.3-1.12,14.41,14.41,0,0,0,.12-2.35c0-.88,0-1.78,0-2.67A11.65,11.65,0,0,0,39.83,23.61Zm-6.72-2.14c-.1,1.84,0,3.66-.07,5.47a19.43,19.43,0,0,1,0,2.41,2.62,2.62,0,0,1-1.82,2.48,2.93,2.93,0,0,1-2.54-.34,4,4,0,0,1-1-2.72,9,9,0,0,1,0-1.56c0-.5,0-1,0-1.46.05-1,0-2,0-3,0-1.93-.06-3.81,0-5.73.08-1.73,0-3.61,0-5.33,0-.93,0-1.86,0-2.8a2.7,2.7,0,0,1,1.15-2.34,3.09,3.09,0,0,1,2.85,0A2.45,2.45,0,0,1,33,8.67c.23,2.17-.08,4.46.05,6.6.07,1.12-.12,2.27-.05,3.41a9.36,9.36,0,0,1,.1,1.41A3.21,3.21,0,0,0,33.11,21.47Z" fill="#ed1b2f"/>
        <path d="M62.05,23.61a7.55,7.55,0,0,1,.05-2.12c0-.63-.14-1.18-.09-1.77a36.87,36.87,0,0,0,0-4.46c-.15-3.08.34-5.9-.35-8.91a8.54,8.54,0,0,0-6.07-6A14.6,14.6,0,0,0,50.88.11c-.17,0-.37.14-.51.17-.37.1-.76.14-1.14.24a6.62,6.62,0,0,0-2,.93,8.82,8.82,0,0,0-4,7.82c0,.71-.08,1.39,0,2.1a17.16,17.16,0,0,1,0,1.76c0,.69,0,1.38,0,2.08s-.09,1.26-.06,1.85c.08,1.61.06,3.23.06,4.85a8.69,8.69,0,0,0,0,1.25,2.7,2.7,0,0,1,0,.85c-.05.71-.12,1.47-.11,2.21,0,1.39.11,2.77.19,4.14a10.74,10.74,0,0,0,.41,2l.16.43.22.41a7.26,7.26,0,0,0,.56,1.07,19.44,19.44,0,0,0,1.51,1.5,2.93,2.93,0,0,0,.67.64c.33.18.66.51,1,.67a11.67,11.67,0,0,0,4.13,1c3.12.15,6.53-.89,8.39-3.55.27-.4,1.09-1.35.51-1.74.62-.12.57-.26.77-.85a4.88,4.88,0,0,0,.3-1.12A14.37,14.37,0,0,0,62,28.48c-.05-.88,0-1.78,0-2.67A10.85,10.85,0,0,0,62.05,23.61Zm-6.71-2.14c-.1,1.84,0,3.66-.08,5.47a11,11,0,0,1,0,2.57c-.33,1.14-.47,1.81-1.61,2.26A3,3,0,0,1,51,31.55a4.06,4.06,0,0,1-1.06-2.73,7.12,7.12,0,0,1,0-1.46c.05-.54,0-1,0-1.56,0-1,.05-2.05.05-3.07,0-1.91-.1-3.77,0-5.68.08-1.72.08-3.62,0-5.34-.05-.92,0-1.83,0-2.76a2.68,2.68,0,0,1,1.14-2.42,3.07,3.07,0,0,1,2.69-.13,2.49,2.49,0,0,1,1.48,2.27c.23,2.18-.1,4.46,0,6.6.07,1.12-.13,2.27,0,3.41a10.88,10.88,0,0,1,.1,1.41A2.93,2.93,0,0,0,55.34,21.47Z" fill="#ed1b2f"/>
      </g>
    </g>
  </g>
</svg>
