<svg xmlns="http://www.w3.org/2000/svg" width="85.96" height="38.11" viewBox="0 0 85.96 38.11">
  <title>L1_W2</title>
  <g id="Layer_2" data-name="Layer 2">
    <g id="_50_txt_tooGoodNotToShare.svg" data-name=" 50 txt tooGoodNotToShare.svg">
      <g>
        <path d="M18.78,33.68a4.79,4.79,0,0,1,.06-.69c0-.23-.11-.47-.11-.74a17.08,17.08,0,0,1,.05-1.76c.1-1-.11-2-.05-3a49.7,49.7,0,0,0,.1-6.23c-.06-.84.28-2.5-.82-2.66-.57-.09-1.12.11-1.67.05a2.71,2.71,0,0,0-.75-.1,5.15,5.15,0,0,1-1,.1c-1-.05-2.07-.1-3.1-.05s-2.6-.45-2.8,1.06a11.17,11.17,0,0,0,.1,1.54c0,.53-.13,1-.1,1.56a2.71,2.71,0,0,0,.14.7c0,.05.18,0,.22.09s0,.21,0,.23a1.48,1.48,0,0,0,.3.21c.3.14,1.89.07,2-.16.23.32.5.15.76.36s.19.58.2.82,0,.64,0,.94a4.33,4.33,0,0,1-.05.66c-.11,1.15.21,2.41-.19,3.54A2.6,2.6,0,0,1,9.22,32a2.14,2.14,0,0,1-1.65-.77,2.9,2.9,0,0,1-.63-1.63,4.53,4.53,0,0,1-.21-1.89c0-.16.24-.39.14-.64s-.4-.31-.49-.58c.69-.07.45-.46.45-1.17s0-1.73,0-2.59c0-.52.08-1.09,0-1.63,0-.25,0-.53-.07-.8s.06-.25,0-.39-.35-.06-.39-.13c-.23-.41.26-.09.41-.25s0-.56,0-.84c0-.71.12-1.39.1-2.12,0-1.17-.11-2.33-.07-3.49s0-2.47,0-3.73A2.87,2.87,0,0,1,8.92,6.24c1.36-.35,2.38.84,2.71,2a8.26,8.26,0,0,1,.27,2c0,.31-.1.64-.08,1s.14.64.14,1-.19,1.33.31,1.69c.34.24.42,0,.71,0s.66.19,1,.2c1.1,0,2.27-.1,3.37-.07,1.44,0,1.27-1.76,1.22-2.85,0-.52,0-1,0-1.55a5.23,5.23,0,0,0-.15-.84c0-.39.07-.8,0-1.19a9.64,9.64,0,0,0-.56-1.9A9.91,9.91,0,0,0,16.94,4a6.46,6.46,0,0,0-1.23-1.52,12.07,12.07,0,0,0-1.63-1.13A10,10,0,0,0,6.48.47,8.5,8.5,0,0,0,.88,5.3c-1.11,2.53-.64,5-.77,7.63a3.66,3.66,0,0,0,0,.88c.06.28.34.49.31.79a.78.78,0,0,1-.1-.15C-.21,14.59.2,16,.2,16.33c0,.13-.12.27-.13.4s.06.24,0,.36c0,.37,0,.76,0,1.12,0,.67,0,1.34,0,2,0,.85-.18,1.71-.1,2.56a6.5,6.5,0,0,1,.16,1c0,.36-.07.74-.07,1.1,0,.65-.07,1.27,0,1.92,0,.46,0,.92,0,1.37a1.7,1.7,0,0,0,0,.45,1.85,1.85,0,0,0,0,.23c0,.09.26.1.26.13,0,.21-.27.07-.3.2s.07.39.09.55c0,.39.11.71.16,1.09s.09.62.16.91c0,.07-.11.14-.09.21s.15.19.16.29.13.18.15.26-.09.15-.07.25a5.33,5.33,0,0,0,1.17,2,13.83,13.83,0,0,0,1.55,1.77,5.72,5.72,0,0,0,1.76,1,9.52,9.52,0,0,0,4.36.63,6.78,6.78,0,0,0,4.39-1.88c1-.94.89.24,1.47.95s1.56.39,2.32.38c1,0,1.17-.55,1.13-1.45C18.74,35.35,19.06,34.36,18.78,33.68Z" fill="#ed1b2f"/>
        <path d="M41.31,23.61a7.19,7.19,0,0,1,0-2.12c0-.63-.14-1.18-.09-1.77a39,39,0,0,0,0-4.46c-.15-3.08.34-5.9-.35-8.91a8.54,8.54,0,0,0-6.07-6A14.6,14.6,0,0,0,30.14.11c-.17,0-.37.14-.51.17-.37.1-.76.14-1.14.24a6.62,6.62,0,0,0-2,.93,8.82,8.82,0,0,0-4,7.82c0,.71-.08,1.39,0,2.1a17.16,17.16,0,0,1-.05,1.76c0,.69.05,1.38.05,2.08s-.09,1.26-.06,1.85c.08,1.61.06,3.23.06,4.85a8.69,8.69,0,0,0,0,1.25,2.7,2.7,0,0,1,0,.85c-.05.72-.12,1.47-.11,2.21,0,1.39.11,2.77.19,4.14a10.74,10.74,0,0,0,.41,2l.16.43.22.41a7.26,7.26,0,0,0,.56,1.07,19.44,19.44,0,0,0,1.51,1.5,2.93,2.93,0,0,0,.67.64c.33.18.66.51,1,.67a11.67,11.67,0,0,0,4.13,1c3.12.15,6.53-.89,8.39-3.55.28-.4,1.09-1.36.51-1.74.62-.12.57-.26.77-.85a4.88,4.88,0,0,0,.3-1.12,14.37,14.37,0,0,0,.13-2.35c-.05-.88,0-1.78,0-2.67A10.17,10.17,0,0,0,41.31,23.61ZM34.6,21.47c-.1,1.84,0,3.66-.08,5.47a17.68,17.68,0,0,1,0,2.41,2.63,2.63,0,0,1-1.83,2.48,2.91,2.91,0,0,1-2.53-.34,4,4,0,0,1-1-2.72,9,9,0,0,1,0-1.56c0-.5,0-1,0-1.46.05-1,0-2,0-3,0-1.93-.07-3.81,0-5.73.08-1.73.05-3.61,0-5.33,0-.93,0-1.86,0-2.8a2.7,2.7,0,0,1,1.15-2.34,3.07,3.07,0,0,1,2.84,0A2.48,2.48,0,0,1,34.5,8.67c.23,2.17-.09,4.46,0,6.6.07,1.12-.13,2.27,0,3.41a10.88,10.88,0,0,1,.1,1.41A3.06,3.06,0,0,0,34.6,21.47Z" fill="#ed1b2f"/>
        <path d="M63.54,23.61a6.87,6.87,0,0,1,.05-2.12c0-.63-.15-1.18-.1-1.77a36.87,36.87,0,0,0,0-4.46c-.15-3.07.34-5.9-.34-8.91a8.54,8.54,0,0,0-6.07-6A14.61,14.61,0,0,0,52.37.11c-.17,0-.37.14-.51.17-.38.1-.77.14-1.14.24a6.62,6.62,0,0,0-2,.93,8.82,8.82,0,0,0-4,7.82c0,.71-.08,1.39,0,2.1s0,1.18-.05,1.76.05,1.38.05,2.08-.09,1.26-.06,1.85c.08,1.61.06,3.23.06,4.85a7.45,7.45,0,0,0,0,1.25,3,3,0,0,1,0,.85c-.06.71-.13,1.47-.12,2.21,0,1.39.12,2.77.2,4.14a10.73,10.73,0,0,0,.4,2l.17.43c0,.12.14.27.21.41a6.47,6.47,0,0,0,.57,1.07,17.69,17.69,0,0,0,1.5,1.5,3.16,3.16,0,0,0,.67.64c.33.18.66.51,1,.67a11.73,11.73,0,0,0,4.14,1c3.12.15,6.52-.89,8.38-3.55.28-.4,1.09-1.35.52-1.74.61-.12.56-.26.76-.85a4.88,4.88,0,0,0,.3-1.12,13.39,13.39,0,0,0,.13-2.35c0-.88,0-1.78,0-2.67A12.51,12.51,0,0,0,63.54,23.61Zm-6.71-2.14c-.1,1.84,0,3.66-.08,5.47a19.45,19.45,0,0,1,0,2.41A2.63,2.63,0,0,1,55,31.83a2.91,2.91,0,0,1-2.53-.34,4,4,0,0,1-1-2.73,9.05,9.05,0,0,1,0-1.56c0-.49,0-1,0-1.46.05-1,0-2,0-3,0-1.93-.07-3.81,0-5.73.08-1.73,0-3.61,0-5.33,0-.93,0-1.86,0-2.8a2.68,2.68,0,0,1,1.15-2.34,3.07,3.07,0,0,1,2.84,0,2.48,2.48,0,0,1,1.33,2.19c.23,2.17-.09,4.46.05,6.6.07,1.12-.13,2.27-.05,3.41a10.88,10.88,0,0,1,.1,1.41A3.06,3.06,0,0,0,56.83,21.47Z" fill="#ed1b2f"/>
        <path d="M81.84,36.32c.46-.3,1.75-1,1.38-1.62.11.11.29.15.41.25A25.57,25.57,0,0,1,85,32.64a10,10,0,0,0,.59-2.37,27.14,27.14,0,0,0,.35-5c0-1.68-.08-3.38,0-5.1,0-.39-.08-.69-.08-1.05s0-.77,0-1.21a12.77,12.77,0,0,1,0-1.95c.08-.84-.08-1.69,0-2.54s0-1.62,0-2.42a10,10,0,0,0-.11-1.1c-.07-.41,0-.85,0-1.24a13.26,13.26,0,0,0-.65-2.47C83.9,2.74,80.86,1,77.38.78,75.58.64,73.79.73,72,.73c-1,0-4.55-.55-4.86.75a4.5,4.5,0,0,0,.07,1.15c0,.44-.08.85-.08,1.27a19.26,19.26,0,0,0,0,2.52c.11.87-.1,1.74,0,2.63s0,1.83,0,2.74v9.3c0,2.95.2,6,0,9-.09,1.56-.11,3.22-.1,4.81,0,.63-.16,1.75.22,2.3s1.56.39,2.27.33a42.59,42.59,0,0,1,5,.05,14.43,14.43,0,0,0,4.59-.26,9.31,9.31,0,0,0,2.6-1m-2.68-23.7c0,3.77,0,7.57,0,11.28a24.55,24.55,0,0,1-.27,5.75,2.7,2.7,0,0,1-2.17,2c-.82.19-2.33.45-2.82-.43s0-2,0-2.82c0-.47,0-1-.06-1.47a3.75,3.75,0,0,1,.11-1.15,18.38,18.38,0,0,0-.1-2.77c0-.82.06-1.68.1-2.52s-.1-1.9-.1-2.87,0-1.81,0-2.64c.17-1.82,0-3.9,0-5.78,0-.9-.49-2.55.86-2.6a7.85,7.85,0,0,1,2.73.28c1.2.47,1.55,1.66,1.69,2.84a9.18,9.18,0,0,1-.09,1.49c0,.21-.07.61.1.78s.42,0,.6.2C79.45,12.35,79.17,12.16,79.11,12.62Z" fill="#ed1b2f"/>
      </g>
    </g>
  </g>
</svg>
