<svg xmlns="http://www.w3.org/2000/svg" width="106.02" height="37.88" viewBox="0 0 106.02 37.88">
  <title>L2_W5</title>
  <g id="Layer_2" data-name="Layer 2">
    <g id="_50_txt_tooGoodNotToShare.svg" data-name=" 50 txt tooGoodNotToShare.svg">
      <g>
        <path d="M18.56,28.18c.37-2.49-1.08-5.05-2.4-7a6.82,6.82,0,0,0-.53-.79c-.24-.27-.43-.55-.65-.83a11.61,11.61,0,0,0-1.23-1.3l-3.06-3C9.06,13.59,6.81,11.52,6.91,9c0-1.28.28-2.44,1.68-2.87a2.39,2.39,0,0,1,3,1.54A8,8,0,0,1,11.84,11c-.05.54-.12,1.23.37,1.62a3.11,3.11,0,0,0,1.67.27c.51,0,1-.05,1.49,0a6.21,6.21,0,0,0,2.11-.06c1.13-.42.67-2.36.62-3.29A13.82,13.82,0,0,0,17.79,6,10.25,10.25,0,0,0,16,2.71C14.34.68,11.79,0,9.25,0a8.7,8.7,0,0,0-7,3A10,10,0,0,0,.32,9.53a14.34,14.34,0,0,0,.19,1.65A6.44,6.44,0,0,0,1,13.12a15.83,15.83,0,0,0,1.76,3.2A44.06,44.06,0,0,0,8,22c1.84,1.71,3.64,3.6,4,6.23a3.2,3.2,0,0,1-1.11,3.23,2.86,2.86,0,0,1-3.24,0c-1-.69-1.27-2.21-1.27-3.35,0-.8.3-3.19-.45-3.69-.41-.28-1.22-.12-1.68-.12-.7,0-1.42.05-2.12,0-.53,0-1.25-.23-1.72.18S0,25.67,0,26.23c0,1.14.11,2.33.16,3.45A8.3,8.3,0,0,0,1,33.11a8,8,0,0,0,2.41,3,10.74,10.74,0,0,0,3.4,1.53,13.17,13.17,0,0,0,3.18.25,7.86,7.86,0,0,0,3.71-.8c2.05-1.1,4.14-3.06,4.66-5.47a8.69,8.69,0,0,0,.25-1.74C18.57,29.37,18.77,28.61,18.56,28.18Z" fill="#ed1b2f"/>
        <path d="M40.88,30.21a6.71,6.71,0,0,1-.05-2.28c0-.92-.09-1.82,0-2.72a40.65,40.65,0,0,0-.05-4.13c0-.83.21-1.71.15-2.51,0-.15-.16-.27-.17-.44s.08-.4.08-.55,0-.66,0-.95c.07-1.73-.12-3.5,0-5.19s-.05-3.5,0-5.22c0-.88,0-1.78,0-2.68a12.12,12.12,0,0,0,0-2.25c-.22-.95-1-.73-1.8-.73S37.12.49,36.24.51c-.67,0-1.77-.07-2.08.63a5,5,0,0,0-.09,2.15c.08,1.51.09,3,0,4.55s.07,3,0,4.48c0,.86.08,1.86,0,2.72s-1,.71-1.72.66-1.61,0-2.39,0-1.36.11-1.49-1a13.45,13.45,0,0,1,0-1.42c0-.36-.06-.79,0-1.17s0-.69,0-1a9.13,9.13,0,0,0,0-1.29,13.45,13.45,0,0,1,.09-2c.06-1-.09-1.91-.05-2.88a16.68,16.68,0,0,0,.05-2.12c0-.56.22-1.63-.25-2S26.51.59,25.9.59s-1.4,0-2.1,0S22,.38,21.71,1.43a11.11,11.11,0,0,0,.1,2.23c0,1.66-.17,3.28-.1,4.95.16,3.36.05,6.67.05,10,0,.37-.25,2.45.26,2.41-.43.11-.22.75-.2,1.07.12-.05.67-.21.61.06,0,.11-.34,0-.43,0-.36.19-.1-.16-.24.26a2.93,2.93,0,0,0,0,.93,5.47,5.47,0,0,1-.09,1c0,.45.08.93.09,1.39,0,.66-.11,1.31-.08,2a12.49,12.49,0,0,1,0,1.62c0,.59.11,1.18.07,1.79-.1,1.18,0,2.31-.06,3.48a6,6,0,0,0,0,2c.16.6.55.65,1.11.68,1.47.07,2.93,0,4.4,0,.6,0,1.06,0,1.19-.72a14,14,0,0,0,0-2.15c0-1.2.06-2.47,0-3.71a10.42,10.42,0,0,1,0-1.77,5.32,5.32,0,0,0,.14-.67c0-.34-.09-.63-.08-1,.07-1.12,0-2.25,0-3.37a4.77,4.77,0,0,1,.18-1.93c.36-.48,1.49-.2,2-.23s.84,0,1.27,0,1.47-.21,1.88,0,.32,1,.33,1.39c0,.6,0,1.15,0,1.75v3.36c0,1.22.12,2.58,0,3.77a16.22,16.22,0,0,0-.07,3,6.31,6.31,0,0,0,.08,1.63c.27.67.89.54,1.49.57,1.17.06,2.41.07,3.57,0a5.16,5.16,0,0,0,.89-.1c.38-.09.35-.2.48-.46a3.41,3.41,0,0,0,.2-1.6c0-1.25.08-2.43.05-3.65A10,10,0,0,1,40.88,30.21Z" fill="#ed1b2f"/>
        <path d="M39.71,37.23s0-.07.16,0Z" fill="#ed1b2f"/>
        <path d="M63.92,35.65c-1.08-5-1.54-10.15-2.72-15.16-.14-.57-.18-1.15-.28-1.72-.05-.3-.12-.62-.17-.89a4,4,0,0,1,0-.78A10,10,0,0,0,60.27,15a6.66,6.66,0,0,1-.11-1,4.34,4.34,0,0,0-.28-.91c-.34-1.14-.27-2.47-.6-3.61a34.33,34.33,0,0,1-.59-3.79c-.12-.68-.34-1.35-.46-2s-.1-1.2-.27-1.86S57.65.67,56.91.56a16.1,16.1,0,0,0-1.84,0c-1,0-2.12.07-3.18.06-.74,0-1.34-.24-1.81.43-.37.51-.25,1-.34,1.61-.37,2.38-1,4.78-1.27,7.22-.17,1.31-.48,2.68-.78,4-.13.55-.14,1-.23,1.6-.05.3-.22.59-.25.89a8.22,8.22,0,0,1,0,.86A5.62,5.62,0,0,0,47,18c0,.12.09.34.08.43s-.17.11-.23.28a7.92,7.92,0,0,0-.29,1.88c-.17,1.3-.47,2.52-.61,3.81a14.44,14.44,0,0,1-.46,1.86c-.12.52-.12,1.11-.22,1.65-.23,1.21-.5,2.38-.67,3.59-.06.41-.5,1.67,0,1.93-.57,0-.49,1.59-.58,2-.14.56-.46,1.13-.07,1.6a1.7,1.7,0,0,0,1.41.44h2.78a3,3,0,0,0,1.58-.17c.51-.35.65-1.24.73-1.82s.08-1.08.16-1.63.16-1.38.29-2.05c.08-.44,0-1.17.34-1.53s1.2-.33,1.75-.31c.7,0,1.42,0,2.13,0s1.15-.2,1.41.41a7.48,7.48,0,0,1,.27,2c.07.59.15,1.16.23,1.77a14,14,0,0,1,.26,1.62c0,.61,0,1.18.55,1.56s1.74.16,2.42.16,1.17,0,1.76,0,1.39.22,1.8-.12S64,36.13,63.92,35.65ZM52.53,24.06c-.7-.43-.2-1.53-.15-2.19.08-1,.29-1.88.45-2.84s.29-1.85.42-2.77c.06-.45,0-1,.11-1.4s.28-.92.39-1.38c.73.23.59,2.49.67,3.15a34.26,34.26,0,0,0,.65,3.69c.09.38.06.93.12,1.39a9.35,9.35,0,0,1,.24,1.56C55.41,24.48,53.38,24,52.53,24.06Z" fill="#ed1b2f"/>
        <path d="M85.74,36.62c-.79-2.38-1.54-4.79-2.22-7.21s-1.47-4.62-2-7A1.17,1.17,0,0,1,82.05,21c.27-.2,1.58-1,1.15-1.27,1.66-.76,1.79-3.12,2.15-4.8A9.52,9.52,0,0,0,85.48,12c-.09-.84,0-1.69-.1-2.58a10.64,10.64,0,0,0-1.6-5.53,5.34,5.34,0,0,0-1.91-2A14,14,0,0,0,79,.77,7.89,7.89,0,0,0,76.5.66C75.41.72,74.36.61,73.26.61c-.4,0-.81-.11-1.2-.1-.23,0-.43.09-.7.09s-.54.05-.82.06A17.71,17.71,0,0,0,67.92.61c-1.09.21-1,.86-1,1.82,0,1.14,0,2.29,0,3.42.09,1.72-.06,3.44,0,5.13,0,1.95.15,3.93.1,5.88,0,.46-.14.86-.13,1.31s.14,1.11.12,1.69a23.4,23.4,0,0,0-.09,2.52c.08.79,0,1.58,0,2.38,0,.47-.1.95-.06,1.39s0,.8,0,1.27c.13,1,0,2,.06,3,0,.88-.11,1.78,0,2.65s-.06,1.92,0,2.91c0,.35,0,1.07.35,1.31s1.25.09,1.64.1c.77,0,1.58.05,2.36.05s2.12.22,2.4-.76a10.32,10.32,0,0,0,0-2.72c0-1-.05-1.91-.05-2.91,0-2.25.05-4.49.05-6.76,0-.72-.21-2,.87-1.87s1,1.52,1.16,2.24A9,9,0,0,1,76.07,26a11.15,11.15,0,0,0,.37,1.34c.29,1,.58,2.05.81,3,.45,1.88,1.09,3.8,1.62,5.67.33,1.2.8,1.47,2,1.4.89,0,1.81,0,2.7,0C84.29,37.52,85.71,37.63,85.74,36.62ZM76.38,16.84c-.69,0-2.21.33-2.65-.31-.19-.28-.08-1-.07-1.32a10.93,10.93,0,0,0,0-1.62,28.61,28.61,0,0,1,0-4.72,13.11,13.11,0,0,1,0-1.88c.1-.44.26-.55.76-.64a5.51,5.51,0,0,1,3.08.4c1.42.76,1.22,3.53,1.29,4.92a16.63,16.63,0,0,1-.23,3.16,2.2,2.2,0,0,1-.84,1.5C77.3,16.66,76.84,16.62,76.38,16.84Z" fill="#ed1b2f"/>
        <path d="M105.83,32.91c.77-1.21-1-1.67-1.81-1.63s-2,.1-2.94.1-2-.06-2.91,0a5.37,5.37,0,0,1-1.6-.1c-.62-.18-.65-.6-.61-1.22.07-1.2,0-2.38,0-3.6-.09.05-.22.05-.31.1-.11-.47.23-.19.3-.35A4,4,0,0,0,96,25c0-.74.07-1.44.05-2.19,0-.58-.19-1.27.51-1.46a6.29,6.29,0,0,1,2,0,13.72,13.72,0,0,0,2,.07,5.41,5.41,0,0,0,1.93-.1c.66-.35.45-1.54.45-2.11,0-.31.09-.59.1-.89s-.14-.58-.14-.9c0-.86.18-1.77-.94-1.88-.6-.06-1.38.21-2,0,.26.31.2.45-.13.31s-.3-.33-.76-.34c-.62,0-1.26.05-1.85.08s-1.26,0-1.32-.79c0-.52.27-1.82-.21-2.16.41-.17.28-1.45.26-1.83,0-.65,0-1.27,0-2s-.28-1.57.28-2,1.47-.14,2.12-.14c1.42,0,2.89-.09,4.23,0a7.06,7.06,0,0,0,2.15,0c.87-.29.72-1.2.67-1.89,0-.46.1-.9.1-1.37,0-.28-.09-.57-.09-.84a3.6,3.6,0,0,0,0-.65c0-.16-.17-.28-.19-.42,0-.3.13-.39-.09-.61s-.38-.24-.57.05c0-.44-.72-.25-1-.25s-1.45-.19-1.19.25l0,.05a.94.94,0,0,0-.8-.31c-.07,0-.23,0-.29,0s-.25.19-.33.19-.25-.18-.39-.19-.16,0-.24,0a6.42,6.42,0,0,0-.76,0c-.78,0-1.58,0-2.37,0L96.71.57a1.61,1.61,0,0,0-.49,0c-.08,0-.14.2-.1.2A2.41,2.41,0,0,1,95.58.6a1.87,1.87,0,0,0-.67,0c-.6,0-1.15-.08-1.75-.05a14,14,0,0,1-1.72.05c-.5-.05-1.15-.19-1.57.15.09,0,.2,0,.3,0a.43.43,0,0,1-.67.05c.24.33-.09.31-.16.6s.06.36,0,.57a12,12,0,0,0-.09,1.33c0,.55-.06,1.12,0,1.67,0,.1,0,.2,0,.3s.2.14.2.21-.2.2-.2.3a4.4,4.4,0,0,0,0,.51c.18-.06.28,0,.46,0-.28.24,0,.42,0,.51s-.35.13-.46.3a.87.87,0,0,1,.61.51c-.33,0-.39-.33-.66-.41a4.48,4.48,0,0,1,0,1.27,1,1,0,0,1,.46,0c-.65.36-.33.35-.31,1,0,.44-.15.86-.11,1.3,0,.14.16.17.16.33s-.18.25-.19.36c0,.36.07.87.05,1.24,0,.2,0,.41,0,.61s.15.19.15.28-.15.1-.15.15c0,.45.12,1,.1,1.44s-.1.69-.09,1.09,0,.69,0,1c0,1,0,2.05,0,3.06,0,.78,0,1.65,0,2.48.06,1.45,0,3,0,4.46-.09,1.79,0,3.57,0,5.35,0,.89,0,1.81,0,2.69,0,1-.3,1.79.87,2a13.84,13.84,0,0,0,2.23,0c.75,0,1.46,0,2.19,0,.91,0,1.79.12,2.69,0a13.72,13.72,0,0,1,2.31,0c.93.07,1.8,0,2.72,0a14.44,14.44,0,0,0,2.79,0c1-.17.79-1,.76-1.86,0-.47,0-1,0-1.46S105.79,33.26,105.83,32.91Z" fill="#ed1b2f"/>
        <path d="M89.61,9.81a.54.54,0,0,1-.2-.46C89.69,9.37,89.92,9.68,89.61,9.81Z" fill="#ed1b2f"/>
      </g>
    </g>
  </g>
</svg>
