<svg xmlns="http://www.w3.org/2000/svg" width="39.89" height="38.08" viewBox="0 0 39.89 38.08">
  <title>L2_W4</title>
  <g id="Layer_2" data-name="Layer 2">
    <g id="_50_txt_tooGoodNotToShare.svg" data-name=" 50 txt tooGoodNotToShare.svg">
      <g>
        <path d="M19.33,5.26c0-.93,0-1.71,0-2.58s.3-1.87-.8-2a6.35,6.35,0,0,0-1.34.1A8.93,8.93,0,0,1,15.72.59a15.94,15.94,0,0,0-2.93.05C9.28,1,5.7.47,2.25.69,1.31.75.13.36.06,1.6a5.26,5.26,0,0,0,0,1c0,.1,0,.14,0,.22s.17.2.17.26C.21,3.5,0,4,0,4.35c0,.74-.13,2,.64,2.31a9,9,0,0,0,2.8.13c.69,0,2.13-.35,2.69.21s.18,2,.21,2.56c.08,1.67-.07,3.35,0,5,.09,1.9-.09,3.86,0,5.77.08,1.71-.17,3.46,0,5.14s0,3.54,0,5.29,0,3.64,0,5.48c0,1.16.73,1.31,1.75,1.28.78,0,1.58,0,2.37,0s2,.33,2.46-.37a6,6,0,0,0,.13-2.25c0-4,0-8,0-12A8.46,8.46,0,0,0,13,21.57a6.55,6.55,0,0,1,.08-1.4c0-.82,0-1.72,0-2.54s0-1.72,0-2.6c0-.4,0-.77,0-1.17s.07-1,0-1.51a17.67,17.67,0,0,1,0-2.72,9.1,9.1,0,0,1,.09-2.51c.27-.63,1.49-.5,2.09-.44.84.09,1.75.07,2.65.11S19.66,6.36,19.33,5.26Z" fill="#ed1b2f"/>
        <path d="M39.83,23.57a6.8,6.8,0,0,1,.05-2.11c0-.62-.13-1.19-.1-1.77.07-1.48.06-3,0-4.47-.12-3.07.34-5.9-.34-8.9a8.57,8.57,0,0,0-6.06-6A12.73,12.73,0,0,0,31.5.09a11.84,11.84,0,0,0-2.79,0c-.53.1-1.13.25-1.7.4a6.68,6.68,0,0,0-2,.89,8.74,8.74,0,0,0-4,7.84c0,.7-.08,1.39-.05,2.1a16.64,16.64,0,0,1,0,1.73c-.05.7,0,1.41,0,2.13s-.1,1.24-.07,1.83c.07,1.59.07,3.18.07,4.78,0,.67.12,1.44.08,2,0,.76-.16,1.52-.17,2.31,0,1.36.14,2.71.19,4.05a10.55,10.55,0,0,0,.4,2.16,8.55,8.55,0,0,0,.34.79,4.73,4.73,0,0,0,.59,1.11,20.07,20.07,0,0,0,1.52,1.54,3,3,0,0,0,.68.64c.34.19.66.52,1,.68a8.86,8.86,0,0,0,2,.59,14.17,14.17,0,0,0,2.11.38c3.11.16,6.51-.9,8.36-3.55.28-.39,1.09-1.35.51-1.74.62-.12.57-.25.77-.85a4.75,4.75,0,0,0,.3-1.12,14.37,14.37,0,0,0,.13-2.35c0-.87,0-1.78,0-2.66A10.45,10.45,0,0,0,39.83,23.57Zm-6.71-2.13c-.1,1.83,0,3.65-.08,5.46a19.64,19.64,0,0,1,0,2.42,2.65,2.65,0,0,1-1.83,2.49,2.91,2.91,0,0,1-2.53-.34,4,4,0,0,1-1-2.73,9,9,0,0,1,0-1.56c0-.5,0-1,0-1.47.05-1,0-2,0-3,0-1.94-.07-3.82,0-5.74.08-1.73,0-3.61,0-5.33,0-.93,0-1.86,0-2.8a2.72,2.72,0,0,1,1.14-2.35,3.12,3.12,0,0,1,2.85,0A2.47,2.47,0,0,1,33,8.63c.23,2.17-.09,4.46,0,6.6.07,1.12-.13,2.27,0,3.41a10.85,10.85,0,0,1,.1,1.4A3.15,3.15,0,0,0,33.12,21.44Z" fill="#ed1b2f"/>
      </g>
    </g>
  </g>
</svg>
