<svg xmlns="http://www.w3.org/2000/svg" width="62.63" height="38.08" viewBox="0 0 62.63 38.08">
  <title>L2_W3</title>
  <g id="Layer_2" data-name="Layer 2">
    <g id="_50_txt_tooGoodNotToShare.svg" data-name=" 50 txt tooGoodNotToShare.svg">
      <g>
        <path d="M19.18,35.58c.13-1.28,0-2.53.05-3.76a32.81,32.81,0,0,0-.05-3.71c-.1-1.38.11-2.82.05-4.22-.06-1.2-.11-2.41-.05-3.63a17.71,17.71,0,0,0,0-1.79c0-.08-.11-.16-.12-.24s.14-.09.14-.15,0-.31-.05-.46a6.84,6.84,0,0,1,.05-.79c.11-1.51.05-3.09.05-4.62,0-1.05-.05-2,0-3.07,0-.69-.12-1.31,0-2a9.48,9.48,0,0,0,.1-1.7c-.06-.69,0-1.32,0-2a11.1,11.1,0,0,0-.05-2C19,.68,18.24.63,17.63.64S16.38.56,15.73.59C14.44.64,13,.35,13.05,2a16.42,16.42,0,0,1,0,1.73,17.78,17.78,0,0,0,0,1.93c.06,1.3-.11,2.65,0,4a32.75,32.75,0,0,1,0,3.84c-.08,1.19,0,2.45,0,3.65,0,.27.11,1.69-.18,1.76s-.77-1.51-.85-1.76a12.63,12.63,0,0,0-.57-1.54c-.31-.67-.34-1.46-.71-2.11-.15-.26-.16-.07-.24-.37a9.75,9.75,0,0,0-.24-1c-.23-.57-.37-1.16-.59-1.74a7.92,7.92,0,0,0-.48-1.22c-.14-.23-.47-.38-.56-.6s.2-.08.21-.25a2.72,2.72,0,0,0-.13-.49c-.08-.28-.16-.54-.25-.82C8,5.71,7.56,4.44,7.06,3.15c-.18-.48-.28-1.56-.7-1.85-.06.11-.1.09-.15.15C6.57.36,4.45.64,3.82.64s-1,.07-1.58,0A6.47,6.47,0,0,0,.92.59C-.19.76.1,2.29.1,3.1c0,1-.09,2,0,3,.1,2,0,4,.1,6,0,.53,0,1,0,1.55,0,.27,0,.52-.05.79a7.74,7.74,0,0,0,.12.86c0,.12-.15.24-.16.36s.11.15.1.25a8,8,0,0,0-.15.83c0,.5.05,1,.05,1.54S.13,19.46.16,20a3.8,3.8,0,0,1-.14.82,3.83,3.83,0,0,0,.08.89,16.2,16.2,0,0,1,0,2.31A22.94,22.94,0,0,0,.1,27.38c.11,1-.09,2.1,0,3.12S0,32.57.08,33.58c0,.58.05,1.2,0,1.79a4,4,0,0,0,0,1.29c.34,1.09,1.7.81,2.49.83H3.82a6.32,6.32,0,0,0,1.79-.09c.62-.18.6-.6.64-1.2s0-1.45,0-2.17c0-1.11.09-2.24,0-3.37-.08-2.15,0-4.38,0-6.52,0-.34.21-1-.21-1.12.46-.62.21-1.49.21-2.2,0-.5,0-1,0-1.5,0-.21-.1-.22-.07-.46s.2-.31.22-.52c.54,0,1.06,2.17,1.27,2.75.12-.08.06,0,.2-.05-.39.18.16,1.19.27,1.56a6.81,6.81,0,0,0,.48,1.15c.07.13.11.24.18.35s.25.15.34.29H8.9c.92,2.69,1.91,5.31,2.8,8,.23.69.56,1.34.84,2a8.71,8.71,0,0,0,.7,2c.18.25.26.26.35.39a1,1,0,0,0,0,.39,1.16,1.16,0,0,0,.51.36,8.59,8.59,0,0,0,2.43,0,14.7,14.7,0,0,0,1.88-.07C19.33,37.31,19.44,36.3,19.18,35.58Z" fill="#ed1b2f"/>
        <path d="M41.7,23.57a7.47,7.47,0,0,1,0-2.11c0-.62-.12-1.19-.09-1.77.07-1.48.06-3,0-4.47-.13-3.07.33-5.9-.35-8.9a8.57,8.57,0,0,0-6.05-6,12.87,12.87,0,0,0-1.88-.2,11.92,11.92,0,0,0-2.8,0c-.52.1-1.12.25-1.7.4a6.92,6.92,0,0,0-2,.89,8.75,8.75,0,0,0-4,7.84c0,.7-.09,1.39-.05,2.1a14.27,14.27,0,0,1,0,1.73c0,.7,0,1.41,0,2.13s-.11,1.24-.08,1.83c.08,1.59.08,3.18.08,4.78,0,.67.11,1.44.08,2,0,.76-.17,1.52-.17,2.31,0,1.36.14,2.71.19,4.05a9.35,9.35,0,0,0,.4,2.16,6.36,6.36,0,0,0,.33.79,5.17,5.17,0,0,0,.6,1.11,18.28,18.28,0,0,0,1.52,1.53,2.92,2.92,0,0,0,.67.64c.34.2.67.52,1,.69a9.22,9.22,0,0,0,2,.59,15.41,15.41,0,0,0,2.1.37c3.11.16,6.51-.9,8.36-3.54.28-.4,1.09-1.36.52-1.74.61-.13.56-.26.76-.86a4.75,4.75,0,0,0,.3-1.12,13.28,13.28,0,0,0,.13-2.34c0-.88,0-1.79,0-2.67A10.36,10.36,0,0,0,41.7,23.57ZM35,21.44c-.1,1.83,0,3.65-.07,5.46a19.6,19.6,0,0,1,0,2.42,2.65,2.65,0,0,1-1.82,2.49,2.93,2.93,0,0,1-2.54-.34,4.07,4.07,0,0,1-1-2.74,9,9,0,0,1,0-1.56c0-.49,0-1,0-1.46.05-1,0-2,0-3,0-1.94-.06-3.82,0-5.74.08-1.73,0-3.61,0-5.33,0-.93,0-1.86,0-2.8a2.73,2.73,0,0,1,1.15-2.35,3.12,3.12,0,0,1,2.85,0,2.44,2.44,0,0,1,1.32,2.19c.23,2.17-.08,4.46,0,6.6.07,1.12-.12,2.27,0,3.41A9.32,9.32,0,0,1,35,20,3.47,3.47,0,0,0,35,21.44Z" fill="#ed1b2f"/>
        <path d="M62.56,5.26c0-.93,0-1.71,0-2.58s.3-1.87-.8-2a6.2,6.2,0,0,0-1.33.1A8.94,8.94,0,0,1,59,.59,15.82,15.82,0,0,0,56,.64C52.52,1,48.94.47,45.49.69c-.94.06-2.12-.33-2.19.91a5.26,5.26,0,0,0,0,1c0,.1,0,.14,0,.22s.18.2.17.26c0,.38-.2.83-.2,1.22,0,.74-.13,2,.64,2.31a9,9,0,0,0,2.8.13c.69,0,2.13-.35,2.69.21s.18,2,.21,2.56c.08,1.67-.07,3.35,0,5,.09,1.9-.09,3.86,0,5.77.08,1.71-.17,3.46,0,5.14s0,3.54,0,5.29,0,3.64,0,5.48c0,1.16.73,1.31,1.75,1.28.78,0,1.58,0,2.37,0s2,.33,2.46-.37a6.23,6.23,0,0,0,.12-2.25c0-4,.05-8,.05-12a8.47,8.47,0,0,0-.07-1.34,7.26,7.26,0,0,1,.07-1.4c0-.82,0-1.72,0-2.54s0-1.72,0-2.6c0-.4,0-.77-.05-1.17s.07-1,0-1.51a17.67,17.67,0,0,1,0-2.72c.08-.75-.21-1.82.09-2.51s1.49-.5,2.09-.44c.84.09,1.75.07,2.65.11S62.88,6.36,62.56,5.26Z" fill="#ed1b2f"/>
        <path d="M44.4,3.22s0-.07.15,0Z" fill="#ed1b2f"/>
      </g>
    </g>
  </g>
</svg>
