<svg xmlns="http://www.w3.org/2000/svg" width="144.23" height="85.4" viewBox="0 0 144.23 85.4">
  <title>logoPart_your</title>
  <g id="Layer_2" data-name="Layer 2">
    <g id="Layer_1-2" data-name="Layer 1">
      <g>
        <path d="M12.45,68.41A9.89,9.89,0,0,0,11.5,70a8.53,8.53,0,0,0-.68,2.13,5.41,5.41,0,0,0,.12,2.12A2.65,2.65,0,0,0,14.59,76a5.12,5.12,0,0,0,2.06-1.56,11.45,11.45,0,0,0,2-3.4,24,24,0,0,0,1.44-6c.15-1.18.22-2.36.33-3.55l-.22-.09A28.11,28.11,0,0,0,12.45,68.41Z" fill="none"/>
        <path d="M58.35,24.08a3.69,3.69,0,0,0-1.49.75,10.59,10.59,0,0,0-1.68,1.86,24.88,24.88,0,0,0-3.55,7A14.81,14.81,0,0,0,51.09,37a5.23,5.23,0,0,0,.55,2.79,2.23,2.23,0,0,0,3,1.24A5.8,5.8,0,0,0,57,39.41a17.42,17.42,0,0,0,4.54-11,7.23,7.23,0,0,0-.43-2.92A2.2,2.2,0,0,0,58.35,24.08Z" fill="none"/>
        <path d="M73.52,11.77a6.14,6.14,0,0,0-.71.55,12.29,12.29,0,0,0-1.48,1.3,7.26,7.26,0,0,1-3.48,2,5.37,5.37,0,0,1-3.1.1c-.75-.21-1.49-.45-2.24-.68a7.64,7.64,0,0,0-3.46-.33,17.12,17.12,0,0,0-6.89,2.68,24,24,0,0,0-5.78,5.5,41.22,41.22,0,0,0-6.1,11.06,19.21,19.21,0,0,0-.79,11c.12.54.21,1.09.34,1.77-2.8-1.74-5.58-1.24-8.47-.36,0-.45,0-.8.07-1.15.17-1.7.33-3.4.53-5.1q.76-6.28,1.57-12.58c.21-1.67.5-3.32.65-5a8.83,8.83,0,0,0-.59-4.15,4.35,4.35,0,0,0-3.11-2.74,7.81,7.81,0,0,0-3.3,0A3.94,3.94,0,0,0,24,18.29a9.11,9.11,0,0,0-.5,1.91c-.22,1.84-.36,3.7-.54,5.54s-.29,3.71-.58,5.55a19.37,19.37,0,0,1-2.91,7.77,10.8,10.8,0,0,1-2.91,3,5.91,5.91,0,0,1-2.38,1,2.45,2.45,0,0,1-3-1.82A8.67,8.67,0,0,1,11,38.79a11.72,11.72,0,0,1,1.09-4.34c.71-1.55,1.46-3.09,2.16-4.64s1.46-3.22,2.16-4.85a6.49,6.49,0,0,0,.48-3.08,3.56,3.56,0,0,0-3.08-3.38A6.75,6.75,0,0,0,8,20.33a14.2,14.2,0,0,0-2.47,3.19,42.11,42.11,0,0,0-4.09,9.77A27.08,27.08,0,0,0,.08,43.48a15.13,15.13,0,0,0,2,6.75,7,7,0,0,0,5,3.52,10.06,10.06,0,0,0,4.19-.24,23.39,23.39,0,0,0,8.92-4.71,4.94,4.94,0,0,1,.62-.51c.19-.11.53-.26.62-.18a1,1,0,0,1,.28.67c0,.39-.08.78-.05,1.17a1.27,1.27,0,0,1-.84,1.31,65.78,65.78,0,0,0-9.37,6A34.7,34.7,0,0,0,5,63.57a18.61,18.61,0,0,0-3.91,9.24,11.88,11.88,0,0,0,.63,6.27,10,10,0,0,0,9.44,6.32,16,16,0,0,0,11.91-5.48,22.65,22.65,0,0,0,4.58-8A47.84,47.84,0,0,0,30.1,58.27,3.25,3.25,0,0,1,32.44,55c2-.69,4.09-1.36,6.15-2,1.29-.38,2.52-.8,3.16-2.06h.16l.31.33a10.58,10.58,0,0,0,10.57,3.45,19.27,19.27,0,0,0,9.93-5.5,29.75,29.75,0,0,0,8.8-22.81,6.55,6.55,0,0,0-.13-1.25A1,1,0,0,1,72,24c.73-.41,1.45-.85,2.17-1.28a22.82,22.82,0,0,0,2-1.31,5,5,0,0,0,2-3.39c.08-.74,0-1.5.06-2.25a6.15,6.15,0,0,0-.63-2.87C76.72,11,75.3,10.6,73.52,11.77ZM20.06,65a24,24,0,0,1-1.44,6,11.45,11.45,0,0,1-2,3.4A5.12,5.12,0,0,1,14.59,76a2.65,2.65,0,0,1-3.65-1.72,5.41,5.41,0,0,1-.12-2.12A8.53,8.53,0,0,1,11.5,70a9.89,9.89,0,0,1,.95-1.63,28.11,28.11,0,0,1,7.72-7l.22.09C20.28,62.67,20.21,63.85,20.06,65ZM61.52,28.44a17.42,17.42,0,0,1-4.54,11A5.8,5.8,0,0,1,54.62,41a2.23,2.23,0,0,1-3-1.24A5.23,5.23,0,0,1,51.09,37a14.81,14.81,0,0,1,.54-3.26,24.88,24.88,0,0,1,3.55-7,10.59,10.59,0,0,1,1.68-1.86,3.69,3.69,0,0,1,1.49-.75,2.2,2.2,0,0,1,2.74,1.44A7.23,7.23,0,0,1,61.52,28.44Z" fill="#ec1f31"/>
        <path d="M106.9,5.38a10.82,10.82,0,0,0-1.8,0,6.19,6.19,0,0,0-5,3,14.38,14.38,0,0,0-1.3,2.95,22.86,22.86,0,0,0-.92,5.76,40,40,0,0,1-.92,7.22,18,18,0,0,1-2.31,5.81,6.21,6.21,0,0,1-2.24,2.17c-2,1-3.42.25-3.5-2a14.39,14.39,0,0,1,.26-2.85,70.5,70.5,0,0,0,1.08-8.59c-.15-2-.27-4.06-.49-6.08a7.79,7.79,0,0,0-1-3.23A3,3,0,0,0,85.5,8c-.5.06-1,.09-1.52.13a3.39,3.39,0,0,0-2.87,1.74,9.54,9.54,0,0,0-1,2.23,26.27,26.27,0,0,0-.84,6.31c-.07,3.66-.17,7.31-.26,11,0,1.56,0,3.12-.19,4.67a33.49,33.49,0,0,0,.07,5.3,7.07,7.07,0,0,0,2.23,4.77,5.33,5.33,0,0,0,3.49,1.47,11.21,11.21,0,0,0,6.51-1.68A19.93,19.93,0,0,0,96,39.58c.76-.9,1-.86,1.51.24a4.6,4.6,0,0,0,5.28,2.8A6.58,6.58,0,0,0,107.92,38a11.83,11.83,0,0,0,.31-3.84c0-1-.08-2,0-3A94.15,94.15,0,0,1,109.8,17.7c.37-2,.65-4.08.88-6.13a8.21,8.21,0,0,0-.42-3.64A3.6,3.6,0,0,0,106.9,5.38Z" fill="#ec1f31"/>
        <path d="M144.15,6.59a7.5,7.5,0,0,0-2.63-5.16A5.38,5.38,0,0,0,137.84,0a11.72,11.72,0,0,0-7.21,2.4,22.46,22.46,0,0,0-3.87,3.74c-.62.74-1,.69-1.34-.18-.06-.13-.11-.27-.18-.41a4.62,4.62,0,0,0-4.34-2.68,6.81,6.81,0,0,0-6,4.72,12,12,0,0,0-.31,3.92c0,1.2,0,2.4,0,3.6a98.81,98.81,0,0,1-1.76,13.72c-.32,1.74-.54,3.5-.71,5.25a8.37,8.37,0,0,0,.44,3.64A3.61,3.61,0,0,0,115,40a7.21,7.21,0,0,0,7.58-2.42,10,10,0,0,0,1.56-3.32,25.21,25.21,0,0,0,.92-5.85,36.65,36.65,0,0,1,1.28-8.52,14.87,14.87,0,0,1,2.3-4.94,5.58,5.58,0,0,1,2-1.75c1.91-.91,3.21-.18,3.38,1.92,0,.6,0,1.2,0,1.8a2.39,2.39,0,0,0,1.41,2.23,4,4,0,0,0,1.27.42c1.16.12,2.33.2,3.49.21a3.09,3.09,0,0,0,3-2,9.48,9.48,0,0,0,.69-2.5c.19-1.6.23-3.22.34-4.84h-.06C144.17,9.16,144.24,7.87,144.15,6.59Z" fill="#ec1f31"/>
      </g>
    </g>
  </g>
</svg>
