<svg xmlns="http://www.w3.org/2000/svg" width="245.87" height="102.54" viewBox="0 0 245.87 102.54">
  <title>logoPart_LEggo</title>
  <g id="Layer_2" data-name="Layer 2">
    <g id="Layer_1-2" data-name="Layer 1">
      <g>
        <path d="M190,29.44a12.3,12.3,0,0,0-2.08.57,17.79,17.79,0,0,0-10.53,10.9,24.58,24.58,0,0,0-.69,2.52c-.05,2.77,1.5,4.08,3.69,3.56a6.76,6.76,0,0,0,2.2-1,17,17,0,0,0,6.82-8.13c.55-1.49,1-3,1.42-4.54a14.29,14.29,0,0,0,.4-2.84C191.28,29.51,191,29.25,190,29.44Z" fill="none"/>
        <path d="M223.12,23.07a4.3,4.3,0,0,0-1.08.81,12.82,12.82,0,0,0-1.39,1.64,27.59,27.59,0,0,0-3.48,6.87,8.68,8.68,0,0,0-.52,4,7.47,7.47,0,0,0,.63,2.32,2.05,2.05,0,0,0,2.63,1.12,5.34,5.34,0,0,0,2.55-1.61,18,18,0,0,0,4.67-11.42,16.92,16.92,0,0,0-.43-2.27A2.36,2.36,0,0,0,223.12,23.07Z" fill="none"/>
        <path d="M177.82,75.49a19.43,19.43,0,0,0-3.16,3.9,7.32,7.32,0,0,0-1,4.22c.11,2,1.37,3,3.38,2.72a7.67,7.67,0,0,0,3.89-1.93,13.43,13.43,0,0,0,3.64-5,49.88,49.88,0,0,0,2.86-9.16,12.61,12.61,0,0,0,.15-1.52,6.88,6.88,0,0,0-2.49,1A37.52,37.52,0,0,0,177.82,75.49Z" fill="none"/>
        <path d="M141.69,75.14a37.72,37.72,0,0,0-8.93,8,10.88,10.88,0,0,0-1.32,2,5.25,5.25,0,0,0-.49,3.92,2.63,2.63,0,0,0,2.65,2,5.34,5.34,0,0,0,2.35-.52,8.52,8.52,0,0,0,2.87-2.26,15.08,15.08,0,0,0,3.07-5.24c.73-2.19,1.34-4.42,2-6.64a20.85,20.85,0,0,0,.35-2.42,10.94,10.94,0,0,0-1.08.33A12.91,12.91,0,0,0,141.69,75.14Z" fill="none"/>
        <path d="M148.67,34.63a16.13,16.13,0,0,0-4,1.38,17.14,17.14,0,0,0-8.77,9,28.76,28.76,0,0,0-.85,2.82,3.31,3.31,0,0,0,4.5,3.13,19.71,19.71,0,0,0,2.4-1.39c4.71-3.29,7-8,8.17-13.5C150.42,34.7,150,34.37,148.67,34.63Z" fill="none"/>
        <path d="M210.81,54.59a8.27,8.27,0,0,0-9-3.89l-1.29.24c0-.43,0-.78,0-1.13.14-3.25.76-6.43,1.22-9.63s.92-6.35,1.27-9.54a12.85,12.85,0,0,0-.12-3.39,5.94,5.94,0,0,0-6-4.92l-1.66.09a1.65,1.65,0,0,1-.13-.29c-.59-2.09-2.09-2.93-4.15-3.07a17.08,17.08,0,0,0-7.22,1.19,35.72,35.72,0,0,0-11.65,7.5A29.4,29.4,0,0,0,165.21,37c-2.16,4.73-2.79,9.58-1,14.59a.79.79,0,0,1-.28.94,17.47,17.47,0,0,1-4.78,3.15,3.12,3.12,0,0,1-.53.15,18.33,18.33,0,0,1,0-2c.21-1.9.4-3.82.73-5.7.61-3.45,1.33-6.89,1.95-10.34a20.73,20.73,0,0,0,.3-5.28,5.08,5.08,0,0,0-6-4.69c-.26.05-.53.07-.81.11a5.16,5.16,0,0,0-3.54-3,9.64,9.64,0,0,0-1.68-.27,16.78,16.78,0,0,0-6.81,1A36.34,36.34,0,0,0,126,37.76a23.16,23.16,0,0,0-4.28,8.84,17.41,17.41,0,0,0,.61,11c1.85,4.52,5.29,6.71,10.13,6.83a14.44,14.44,0,0,0,7.44-1.75c1.86-1,3.62-2.24,5.42-3.37L147,58.26a2.89,2.89,0,0,1-.92,3.41c-.91.56-1.89,1-2.84,1.53-2.49,1.33-5,2.59-7.44,4a60.78,60.78,0,0,0-10.33,7.33,23,23,0,0,0-7.74,15.28A11.06,11.06,0,0,0,125,101.59a15.67,15.67,0,0,0,8.86.57,21,21,0,0,0,13.85-9.65,63.92,63.92,0,0,0,6.82-15.12,50,50,0,0,0,1.59-7.84A3.4,3.4,0,0,1,158,66.84c.89-.48,1.83-.88,2.76-1.3s2-.81,3-1.28A6.1,6.1,0,0,0,167,60.4c.26-.86.47-1.74.71-2.6.06-.21.14-.42.19-.57.92.46,1.75,1,2.63,1.31a12.51,12.51,0,0,0,6.91.43,18.24,18.24,0,0,0,6.22-2.52c1.45-.9,2.84-1.89,4.27-2.83.34-.22.71-.39,1.06-.59a2.59,2.59,0,0,1-.65,3.57c-1.28.78-2.58,1.52-3.92,2.19a67.66,67.66,0,0,0-13.34,8.95,28.51,28.51,0,0,0-6.11,6.67,19,19,0,0,0-3.21,11.5,11.22,11.22,0,0,0,6.73,9.89,15.12,15.12,0,0,0,9.85,1,20.31,20.31,0,0,0,13.41-9.23,45.3,45.3,0,0,0,6.77-19.17c.16-1.4.33-2.8.48-4.2a2.18,2.18,0,0,1,1.28-1.84,12.6,12.6,0,0,1,2.51-.92c1.61-.36,3.25-.55,4.86-.92a9.48,9.48,0,0,0,2.58-1A2.68,2.68,0,0,0,211.47,56,6.64,6.64,0,0,0,210.81,54.59Zm-67,21.88c-.61,2.22-1.22,4.45-2,6.64a15.08,15.08,0,0,1-3.07,5.24A8.52,8.52,0,0,1,136,90.61a5.34,5.34,0,0,1-2.35.52,2.63,2.63,0,0,1-2.65-2,5.25,5.25,0,0,1,.49-3.92,10.88,10.88,0,0,1,1.32-2,37.72,37.72,0,0,1,8.93-8,12.91,12.91,0,0,1,1.42-.76,10.94,10.94,0,0,1,1.08-.33A20.85,20.85,0,0,1,143.84,76.47Zm6.29-40.4c-1.12,5.46-3.46,10.21-8.17,13.5a19.71,19.71,0,0,1-2.4,1.39,3.31,3.31,0,0,1-4.5-3.13,28.76,28.76,0,0,1,.85-2.82,17.14,17.14,0,0,1,8.77-9,16.13,16.13,0,0,1,4-1.38C150,34.37,150.42,34.7,150.13,36.07Zm37.28,34.21a49.88,49.88,0,0,1-2.86,9.16,13.43,13.43,0,0,1-3.64,5A7.67,7.67,0,0,1,177,86.33c-2,.3-3.27-.68-3.38-2.72a7.32,7.32,0,0,1,1-4.22,19.43,19.43,0,0,1,3.16-3.9,37.52,37.52,0,0,1,7.25-5.72,6.88,6.88,0,0,1,2.49-1A12.61,12.61,0,0,1,187.41,70.28Zm3.81-39.76a14.29,14.29,0,0,1-.4,2.84c-.41,1.53-.87,3-1.42,4.54A17,17,0,0,1,182.58,46a6.76,6.76,0,0,1-2.2,1c-2.19.52-3.74-.79-3.69-3.56a24.58,24.58,0,0,1,.69-2.52A17.79,17.79,0,0,1,187.91,30a12.3,12.3,0,0,1,2.08-.57C191,29.25,191.28,29.51,191.22,30.52Z" fill="#ec1f31"/>
        <path d="M121.68,72.65a7,7,0,0,0,.14-3.64,7.75,7.75,0,0,0-4.64-5.16,4.68,4.68,0,0,0-4.65.2,14,14,0,0,0-2.85,2.17,45.63,45.63,0,0,0-3.56,4.28,36,36,0,0,1-10.73,9.84,18.68,18.68,0,0,1-7,2.57,7.72,7.72,0,0,1-6.65-2.26,4.83,4.83,0,0,1-1.45-4.35,12.7,12.7,0,0,1,1-3.45A23.74,23.74,0,0,1,87.15,65a82.65,82.65,0,0,1,16.43-11.74c3.24-1.74,6.63-3.22,9.93-4.84,1.48-.73,2.93-1.52,4.38-2.3a3.06,3.06,0,0,0,1.58-2.48,10.31,10.31,0,0,0-1.39-6.38A4.18,4.18,0,0,0,113.55,35a32,32,0,0,0-3.34.72c-1.69.4-3.35.92-5.06,1.22a14.91,14.91,0,0,1-5.37.11A4,4,0,0,1,96.64,35a4.31,4.31,0,0,1-.21-3.58,11.43,11.43,0,0,1,1.16-2.22,23.66,23.66,0,0,1,7.42-7,49.38,49.38,0,0,1,20.51-6.7q3.45-.33,6.87-.88c5-.84,7.52-6.55,6.32-10a5.68,5.68,0,0,0-4-4A18.86,18.86,0,0,0,130.91,0a32.79,32.79,0,0,0-8.49.8A113.76,113.76,0,0,0,101,7.75a56.79,56.79,0,0,0-14.85,9.19,35.76,35.76,0,0,0-8.24,9.68,18.76,18.76,0,0,0-2.58,9.79c.14,5.3,2.82,8.7,8,9.85,1.75.39,3.56.49,5.34.73.43.06.85.15,1.28.23l.08.28a5.18,5.18,0,0,1-.7.63c-.45.3-.92.57-1.39.82A61.33,61.33,0,0,0,69.23,64.22a36.58,36.58,0,0,0-6.08,9.62,20.59,20.59,0,0,0-1.32,12.93,13.49,13.49,0,0,0,7.53,9.53,26.49,26.49,0,0,0,4.88,1.81A36.53,36.53,0,0,0,89,98.78a31.76,31.76,0,0,0,11.24-3.86,66.18,66.18,0,0,0,11.54-8.41,45.65,45.65,0,0,0,7.05-7.9A19.37,19.37,0,0,0,121.68,72.65Z" fill="#ec1f31"/>
        <path d="M42.27,74.82a23.5,23.5,0,0,0-4.87,1.23c-5.12,1.69-10.07,3.85-15,5.91l-2.06.85-.12-.14c.12-.28.23-.55.34-.83,1.07-2.54,2.17-5.07,3.2-7.62,7.22-18,13.4-36.32,19.69-54.63a14.15,14.15,0,0,0,.68-3.6A7.25,7.25,0,0,0,41,9.29a9.48,9.48,0,0,0-5.28-1.8c-3.21-.15-7.43,1-9,5.93-.15.45-.29.91-.42,1.37-.43,1.5-.85,3-1.27,4.5C22.72,27.16,20.52,35,18.28,42.9c-1.46,5.13-3,10.25-4.88,15.23C9.49,68.29,5.59,78.44,1.24,88.42a18.06,18.06,0,0,0-1,3.07,7.82,7.82,0,0,0,4.52,9.11,9.1,9.1,0,0,0,7.18.3c3.2-1.19,6.38-2.42,9.58-3.62,7.23-2.72,14.4-5.61,22-7.37a8.84,8.84,0,0,0,5.7-4,7.3,7.3,0,0,0-6.91-11.14Z" fill="#ec1f31"/>
        <path d="M244.52,9.62a2.25,2.25,0,0,0-2.92-.88,7.09,7.09,0,0,0-1.68,1A24.55,24.55,0,0,0,238,11.56,11.63,11.63,0,0,1,234,14.15a6,6,0,0,1-4.22.15c-.57-.19-1.14-.39-1.71-.56a6.2,6.2,0,0,0-3.1-.34,26.07,26.07,0,0,0-3.82,1,20.53,20.53,0,0,0-8.65,6.54,42.87,42.87,0,0,0-6.29,10.76,20.81,20.81,0,0,0-1.61,8.19,16.92,16.92,0,0,0,2.64,9.25,9.39,9.39,0,0,0,4.73,4,11.44,11.44,0,0,0,6.11.45A19.58,19.58,0,0,0,227,49.16a26.81,26.81,0,0,0,7.18-9.56,29.85,29.85,0,0,0,3-13.4,17.3,17.3,0,0,0-.17-2.15,1.15,1.15,0,0,1,.67-1.31c1.17-.66,2.36-1.31,3.49-2a19.46,19.46,0,0,0,2.73-2,6.32,6.32,0,0,0,1.83-6.34A7,7,0,0,0,244.52,9.62ZM222.46,38.19a5.34,5.34,0,0,1-2.55,1.61,2.05,2.05,0,0,1-2.63-1.12,7.47,7.47,0,0,1-.63-2.32,8.68,8.68,0,0,1,.52-4,27.59,27.59,0,0,1,3.48-6.87A12.82,12.82,0,0,1,222,23.88a4.3,4.3,0,0,1,1.08-.81,2.36,2.36,0,0,1,3.58,1.43,16.92,16.92,0,0,1,.43,2.27A18,18,0,0,1,222.46,38.19Z" fill="#ec1f31"/>
        <path d="M65.9,12.28a18.84,18.84,0,0,0-.31-2.13,6.41,6.41,0,0,0-4.79-5,6.27,6.27,0,0,0-6.49,2.1,8,8,0,0,0-2.06,6.91,12,12,0,0,1-1.44,8.23,16.91,16.91,0,0,0-1.14,2.44,5.66,5.66,0,0,0-.3,1.58,2.09,2.09,0,0,0,1.2,2.13,6.18,6.18,0,0,0,1,.43,5,5,0,0,0,3.75-.42,13.14,13.14,0,0,0,3.87-3,31.88,31.88,0,0,0,5.54-8.46A12.33,12.33,0,0,0,65.9,12.28Z" fill="#ec1f31"/>
      </g>
    </g>
  </g>
</svg>
