<svg xmlns="http://www.w3.org/2000/svg" width="79.232" height="9.391" viewBox="0 0 158.465 18.781">
  <defs>
    <style>
      .cls-1 {
        fill-rule: evenodd;
        opacity: 0.8;
      }
    </style>
  </defs>
  <path id="_50_ServingSize_728x90.svg" data-name="50% ServingSize_728x90.svg" class="cls-1" d="M892.726,158.943a4.657,4.657,0,0,0,3.471,1.309,5.031,5.031,0,0,0,2.388-.527,3.866,3.866,0,0,0,1.567-1.536,4.44,4.44,0,0,0,.576-2.239,3.745,3.745,0,0,0-2.169-3.573,14.871,14.871,0,0,0-2.441-.834,6.072,6.072,0,0,1-2.284-.969,1.76,1.76,0,0,1-.508-1.348,1.912,1.912,0,0,1,.694-1.528,3.018,3.018,0,0,1,2.011-.591,2.835,2.835,0,0,1,2.017.674,3.091,3.091,0,0,1,.835,2.071l1.494-.137a4.89,4.89,0,0,0-.581-2.276,3.676,3.676,0,0,0-1.524-1.484,4.838,4.838,0,0,0-2.29-.517,4.131,4.131,0,0,0-3.027,1.1,3.81,3.81,0,0,0-1.123,2.842,3.756,3.756,0,0,0,.391,1.733,3.446,3.446,0,0,0,1.093,1.265,8.571,8.571,0,0,0,2.364.991,15.76,15.76,0,0,1,2.426.854,2.084,2.084,0,0,1,.84.775,2.136,2.136,0,0,1,.279,1.106,2.239,2.239,0,0,1-.767,1.759,3.147,3.147,0,0,1-2.153.677,3.72,3.72,0,0,1-1.739-.4,3,3,0,0,1-1.186-1.06,4.254,4.254,0,0,1-.532-1.841l-1.465.156A4.98,4.98,0,0,0,892.726,158.943ZM906.4,158.8a2.191,2.191,0,0,1-1.758-.889,4.486,4.486,0,0,1-.81-2.637h6.348l0.009-.468a6.33,6.33,0,0,0-1.1-4.014,3.389,3.389,0,0,0-2.754-1.387,3.509,3.509,0,0,0-2.857,1.411,6.446,6.446,0,0,0-1.128,4.1,6.128,6.128,0,0,0,1.119,3.96,3.59,3.59,0,0,0,2.925,1.372,3.536,3.536,0,0,0,2.407-.845,4.507,4.507,0,0,0,1.342-2.5l-1.484-.225q-0.635,2.128-2.256,2.129h0Zm-1.728-7.144a2.1,2.1,0,0,1,3.418.161,3.955,3.955,0,0,1,.576,2.012h-4.746A3.53,3.53,0,0,1,904.669,151.653Zm8.93,8.355v-5.43a8.1,8.1,0,0,1,.274-2.139,1.73,1.73,0,0,1,.537-0.9,1.268,1.268,0,0,1,.84-0.322,1.816,1.816,0,0,1,1.045.381l0.488-1.631a2.461,2.461,0,0,0-1.475-.567,1.391,1.391,0,0,0-.932.357,4.421,4.421,0,0,0-.913,1.45v-1.572h-1.3v10.371H913.6Zm7.942,0,3.235-10.371h-1.485l-1.9,6.328q-0.342,1.152-.528,1.973-0.236-1.036-.548-2.09l-1.83-6.211h-1.524l3.235,10.371h1.343Zm6.12-12.3v-2.022h-1.435v2.022h1.435Zm0,12.3V149.637h-1.435v10.371h1.435Zm3.843,0v-5.67a4.341,4.341,0,0,1,.615-2.65,2,2,0,0,1,1.651-.772,1.642,1.642,0,0,1,.961.288,1.674,1.674,0,0,1,.611.817,5.216,5.216,0,0,1,.2,1.672v6.315h1.436v-6.377a9.418,9.418,0,0,0-.176-2.129,2.873,2.873,0,0,0-.531-1.128,2.585,2.585,0,0,0-.936-0.7,2.971,2.971,0,0,0-1.262-.269,2.873,2.873,0,0,0-1.555.423,3.356,3.356,0,0,0-1.146,1.277v-1.465h-1.3v10.371H931.5Zm8.462,3.32a3.435,3.435,0,0,0,2.539.889,3.771,3.771,0,0,0,2.138-.591,3.305,3.305,0,0,0,1.28-1.611,10.537,10.537,0,0,0,.39-3.413v-8.965h-1.328v1.24a3.409,3.409,0,0,0-1.1-1.106,2.636,2.636,0,0,0-1.373-.369,3.124,3.124,0,0,0-1.85.586,4.037,4.037,0,0,0-1.333,1.836,7.718,7.718,0,0,0-.508,2.92,6.316,6.316,0,0,0,1.152,3.975,3.086,3.086,0,0,0,2.53,1.289,2.54,2.54,0,0,0,1.3-.34,3.362,3.362,0,0,0,1.054-1.008,12.839,12.839,0,0,1-.127,2.305,2.1,2.1,0,0,1-2.275,1.806,2.057,2.057,0,0,1-1.358-.407,1.82,1.82,0,0,1-.585-1.243l-1.407-.254A3.235,3.235,0,0,0,939.966,163.328Zm1.012-11.526a1.936,1.936,0,0,1,1.58-.954,2.078,2.078,0,0,1,1.713.954,6.486,6.486,0,0,1,.019,5.84,2.019,2.019,0,0,1-1.663.92,1.987,1.987,0,0,1-1.654-.939,5.192,5.192,0,0,1-.675-2.986A4.877,4.877,0,0,1,940.978,151.8Zm13.514,7.141a4.657,4.657,0,0,0,3.471,1.309,5.031,5.031,0,0,0,2.388-.527,3.866,3.866,0,0,0,1.567-1.536,4.44,4.44,0,0,0,.577-2.239,3.748,3.748,0,0,0-2.17-3.573,14.886,14.886,0,0,0-2.44-.834,6.071,6.071,0,0,1-2.285-.969,1.76,1.76,0,0,1-.508-1.348,1.912,1.912,0,0,1,.694-1.528,3.018,3.018,0,0,1,2.011-.591,2.835,2.835,0,0,1,2.017.674,3.091,3.091,0,0,1,.835,2.071l1.494-.137a4.89,4.89,0,0,0-.581-2.276,3.676,3.676,0,0,0-1.524-1.484,4.838,4.838,0,0,0-2.29-.517,4.131,4.131,0,0,0-3.027,1.1,3.81,3.81,0,0,0-1.123,2.842,3.756,3.756,0,0,0,.391,1.733,3.446,3.446,0,0,0,1.093,1.265,8.571,8.571,0,0,0,2.364.991,15.76,15.76,0,0,1,2.426.854,2.084,2.084,0,0,1,.84.775,2.136,2.136,0,0,1,.279,1.106,2.239,2.239,0,0,1-.767,1.759,3.147,3.147,0,0,1-2.153.677,3.72,3.72,0,0,1-1.739-.4,3,3,0,0,1-1.186-1.06,4.254,4.254,0,0,1-.532-1.841l-1.465.156A4.98,4.98,0,0,0,954.492,158.943Zm11.552-11.23v-2.022h-1.435v2.022h1.435Zm0,12.3V149.637h-1.435v10.371h1.435Zm9.194,0v-1.514H971.3q-0.851,0-1.817.088l0.89-1.2,4.619-6.582v-1.162h-6.963v1.426h3.47q0.7,0,1.632-.059l-5.424,7.578v1.426h7.529Zm5.171-1.211a2.191,2.191,0,0,1-1.758-.889,4.472,4.472,0,0,1-.81-2.637h6.347l0.01-.468a6.33,6.33,0,0,0-1.1-4.014,3.389,3.389,0,0,0-2.754-1.387,3.508,3.508,0,0,0-2.857,1.411,6.44,6.44,0,0,0-1.128,4.1,6.134,6.134,0,0,0,1.118,3.96,3.593,3.593,0,0,0,2.925,1.372,3.533,3.533,0,0,0,2.407-.845,4.5,4.5,0,0,0,1.343-2.5l-1.484-.225q-0.635,2.128-2.256,2.129h0Zm-1.729-7.144a2.1,2.1,0,0,1,3.418.161,3.964,3.964,0,0,1,.577,2.012h-4.746A3.536,3.536,0,0,1,978.68,151.653Zm17.275-6.02h-0.937a6.344,6.344,0,0,1-1.284,1.924,8.864,8.864,0,0,1-2.105,1.67v1.7a8.721,8.721,0,0,0,1.543-.923,7.69,7.69,0,0,0,1.338-1.2v11.2h1.445V145.633Zm12.925,14.375,2.49-10.908c0.12-.5.23-1.055,0.34-1.68l0.37,1.68,2.48,10.908h1.5l3.22-14.317h-1.56l-1.85,9.2q-0.345,1.719-.57,3.115c-0.21-1.615-.51-3.3-0.92-5.069l-1.67-7.246h-1.89l-2.23,9.668-0.53,2.647c-0.14-.99-0.31-1.966-0.5-2.93l-1.79-9.385h-1.59l3.13,14.317h1.57Zm17.05,0h1.5a4.635,4.635,0,0,1-.36-1.245,30.83,30.83,0,0,1-.09-3.1v-2.344a9.047,9.047,0,0,0-.2-2.168,2.2,2.2,0,0,0-.97-1.245,3.747,3.747,0,0,0-2.1-.5,4.063,4.063,0,0,0-2.64.762,3.951,3.951,0,0,0-1.22,2.432l1.41,0.234a2.762,2.762,0,0,1,.73-1.565,2.336,2.336,0,0,1,1.51-.417,2.063,2.063,0,0,1,1.65.625,2.287,2.287,0,0,1,.38,1.494l-0.01.449a11.005,11.005,0,0,1-2.58.615,5.344,5.344,0,0,0-1.95.576,2.8,2.8,0,0,0-1.02,1.084,3.411,3.411,0,0,0-.37,1.592,2.964,2.964,0,0,0,.79,2.158,2.858,2.858,0,0,0,2.12.8,3.648,3.648,0,0,0,1.62-.381,5.372,5.372,0,0,0,1.51-1.133,4.184,4.184,0,0,0,.29,1.28h0Zm-0.41-4.561a4.744,4.744,0,0,1-.31,1.949,2.5,2.5,0,0,1-.94,1.069,2.573,2.573,0,0,1-1.41.4,1.758,1.758,0,0,1-1.27-.444,1.593,1.593,0,0,1-.45-1.187,1.66,1.66,0,0,1,.2-0.844,1.39,1.39,0,0,1,.56-0.567,4.385,4.385,0,0,1,1.27-.356,9.149,9.149,0,0,0,2.35-.664v0.644Zm5.74,4.561v-9h1.66v-1.367h-1.66V148.68a2.079,2.079,0,0,1,.28-1.284,1.118,1.118,0,0,1,.92-0.337,4,4,0,0,1,.85.1l0.21-1.523a5.537,5.537,0,0,0-1.35-.186,2.483,2.483,0,0,0-1.32.323,1.965,1.965,0,0,0-.77.932,4.98,4.98,0,0,0-.26,1.831v1.1h-1.28V151h1.28v9h1.44Zm4.47,0v-9h1.66v-1.367h-1.66V148.68a2.152,2.152,0,0,1,.28-1.284,1.154,1.154,0,0,1,.93-0.337,4.067,4.067,0,0,1,.85.1l0.21-1.523a5.537,5.537,0,0,0-1.35-.186,2.483,2.483,0,0,0-1.32.323,1.928,1.928,0,0,0-.78.932,5.016,5.016,0,0,0-.25,1.831v1.1h-1.28V151h1.28v9h1.43Zm4.32,0V145.691h-1.44v14.317h1.44Zm6.01-1.211a2.192,2.192,0,0,1-1.76-.889,4.5,4.5,0,0,1-.81-2.637h6.35l0.01-.468a6.3,6.3,0,0,0-1.11-4.014,3.373,3.373,0,0,0-2.75-1.387,3.515,3.515,0,0,0-2.86,1.411,6.452,6.452,0,0,0-1.13,4.1,6.163,6.163,0,0,0,1.12,3.96,3.6,3.6,0,0,0,2.93,1.372,3.515,3.515,0,0,0,2.4-.845,4.514,4.514,0,0,0,1.35-2.5l-1.49-.225q-0.63,2.128-2.25,2.129h0Zm-1.73-7.144a2.076,2.076,0,0,1,1.65-.8,2.118,2.118,0,0,1,1.77.966,4,4,0,0,1,.57,2.012h-4.74A3.475,3.475,0,0,1,1044.33,151.653Z" transform="translate(-891.375 -145.438)"/>
</svg>
