<svg xmlns="http://www.w3.org/2000/svg" xmlns:xlink="http://www.w3.org/1999/xlink" width="600" height="63" viewBox="0 0 600 73">
  <defs>
    <linearGradient id="linear-gradient" x1="331.87" x2="331.87" y2="52.25" gradientUnits="userSpaceOnUse">
      <stop offset="0.13" stop-color="#231f20" stop-opacity="0.95"/>
      <stop offset="0.3" stop-color="#231f20" stop-opacity="0.68"/>
      <stop offset="0.57" stop-color="#231f20" stop-opacity="0"/>
    </linearGradient>
    <linearGradient id="linear-gradient-2" x1="371.95" x2="371.95" y2="52.25" xlink:href="#linear-gradient"/>
    <linearGradient id="linear-gradient-3" x1="414.35" x2="414.35" y2="53" xlink:href="#linear-gradient"/>
    <linearGradient id="linear-gradient-4" x1="463.76" x2="463.76" y2="52.25" xlink:href="#linear-gradient"/>
    <linearGradient id="linear-gradient-5" x1="505.26" x2="505.26" y2="52.25" xlink:href="#linear-gradient"/>
    <linearGradient id="linear-gradient-6" x1="546.54" x2="546.54" y2="52.25" xlink:href="#linear-gradient"/>
    <linearGradient id="linear-gradient-7" x1="17.74" y1="0.74" x2="17.74" y2="52.26" xlink:href="#linear-gradient"/>
    <linearGradient id="linear-gradient-8" x1="65.29" y1="0.74" x2="65.29" y2="52.26" xlink:href="#linear-gradient"/>
    <linearGradient id="linear-gradient-9" x1="104.81" y1="0.74" x2="104.81" y2="52.26" xlink:href="#linear-gradient"/>
    <linearGradient id="linear-gradient-10" x1="141.76" x2="141.76" y2="53" xlink:href="#linear-gradient"/>
    <linearGradient id="linear-gradient-11" x1="193.41" y1="0.74" x2="193.41" y2="52.26" xlink:href="#linear-gradient"/>
      
<!--          <filter id="shadow">
      <feDropShadow dx="-3" dy="-3" stdDeviation="1" flood-color="#d4801e" flood-opacity="0.5"/>
        <feDropShadow dx="-3" dy="-3" stdDeviation="0.25" flood-color="#d4801e" flood-opacity="1"/>
              
              
    </filter>
      
    <filter id="shadowWhite">
        <feDropShadow dx="1" dy="2" stdDeviation="0.5" flood-color="#FFFFFF" flood-opacity="0.1"/>
        <feDropShadow dx="3" dy="4" stdDeviation="1" flood-color="#FFFFFF" flood-opacity="0.5"/>

      
    </filter>-->
      
  </defs>
    
    <style>
        .dropShadow{
            filter: drop-shadow(3px 4px 5px #d4801e);
        -webkit-filter: drop-shadow(3px 4px 5px #d4801e);
        -moz-filter: drop-shadow(3px 4px 5px #d4801e);
        }
        .dropShadowWhite{
            filter: drop-shadow(-5px -5px 4px rgba(255,255,255,0.5));
        -webkit-filter: drop-shadow(-5px -5px 4px rgba(255,255,255,0.5));
        -moz-filter: drop-shadow(-5px -5px 4px rgba(255,255,255,0.5));
        }
    </style>
    
  <title>thickFluffy_alone_728x90</title>

      <g id="Layer_1-2" data-name="Layer 1" transform="matrix(1, 0, 0, 1, 0, 10)">
        <g class="dropShadowWhite">
          <g class="dropShadow">
            <path d="M315,1.42A1.42,1.42,0,0,1,316.42,0h30.9a1.42,1.42,0,0,1,1.42,1.42V9.55A1.42,1.42,0,0,1,347.32,11H326.65V21.72h17a1.47,1.47,0,0,1,1.42,1.42v8.14a1.47,1.47,0,0,1-1.42,1.42h-17V50.83a1.47,1.47,0,0,1-1.42,1.42h-8.81A1.42,1.42,0,0,1,315,50.83Z" fill="#9e3223"/>
            <path d="M356.5,1.42A1.42,1.42,0,0,1,357.92,0h8.88a1.47,1.47,0,0,1,1.42,1.42V41.28H386a1.41,1.41,0,0,1,1.41,1.42v8.13A1.41,1.41,0,0,1,386,52.25H357.92a1.42,1.42,0,0,1-1.42-1.42Z" fill="#9e3223"/>
            <path d="M393.08,1.42A1.46,1.46,0,0,1,394.49,0h9.19a1.41,1.41,0,0,1,1.41,1.42V32.55c0,5.45,3.89,8.51,9.19,8.51s9.33-3.06,9.33-8.51V1.42A1.41,1.41,0,0,1,425,0h9.18a1.47,1.47,0,0,1,1.42,1.42V33.14c0,11.35-9.56,19.86-21.35,19.86s-21.2-8.51-21.2-19.86Z" fill="#9e3223"/>
            <path d="M446.89,1.42A1.42,1.42,0,0,1,448.31,0h30.9a1.41,1.41,0,0,1,1.42,1.42V9.55A1.41,1.41,0,0,1,479.21,11H458.54V21.72h17A1.47,1.47,0,0,1,477,23.14v8.14a1.47,1.47,0,0,1-1.41,1.42h-17V50.83a1.47,1.47,0,0,1-1.42,1.42h-8.81a1.42,1.42,0,0,1-1.42-1.42Z" fill="#9e3223"/>
            <path d="M488.39,1.42A1.42,1.42,0,0,1,489.81,0h30.9a1.42,1.42,0,0,1,1.42,1.42V9.55A1.42,1.42,0,0,1,520.71,11H500V21.72h17a1.47,1.47,0,0,1,1.41,1.42v8.14a1.47,1.47,0,0,1-1.41,1.42H500V50.83a1.47,1.47,0,0,1-1.42,1.42h-8.81a1.42,1.42,0,0,1-1.42-1.42Z" fill="#9e3223"/>
            <path d="M540.57,27.1,524.07,2.17A1.38,1.38,0,0,1,525.26,0H535a1.48,1.48,0,0,1,1.19.67L546.54,16,556.91.67a1.39,1.39,0,0,1,1.2-.67h9.7A1.39,1.39,0,0,1,569,2.17L552.29,27V50.83a1.47,1.47,0,0,1-1.42,1.42H542a1.41,1.41,0,0,1-1.41-1.42Z" fill="#9e3223"/>
          </g>
          <g style="mix-blend-mode: multiply">
            <path d="M315,1.42A1.42,1.42,0,0,1,316.42,0h30.9a1.42,1.42,0,0,1,1.42,1.42V9.55A1.42,1.42,0,0,1,347.32,11H326.65V21.72h17a1.47,1.47,0,0,1,1.42,1.42v8.14a1.47,1.47,0,0,1-1.42,1.42h-17V50.83a1.47,1.47,0,0,1-1.42,1.42h-8.81A1.42,1.42,0,0,1,315,50.83Z" fill="url(#linear-gradient)"/>
            <path d="M356.5,1.42A1.42,1.42,0,0,1,357.92,0h8.88a1.47,1.47,0,0,1,1.42,1.42V41.28H386a1.41,1.41,0,0,1,1.41,1.42v8.13A1.41,1.41,0,0,1,386,52.25H357.92a1.42,1.42,0,0,1-1.42-1.42Z" fill="url(#linear-gradient-2)"/>
            <path d="M393.08,1.42A1.46,1.46,0,0,1,394.49,0h9.19a1.41,1.41,0,0,1,1.41,1.42V32.55c0,5.45,3.89,8.51,9.19,8.51s9.33-3.06,9.33-8.51V1.42A1.41,1.41,0,0,1,425,0h9.18a1.47,1.47,0,0,1,1.42,1.42V33.14c0,11.35-9.56,19.86-21.35,19.86s-21.2-8.51-21.2-19.86Z" fill="url(#linear-gradient-3)"/>
            <path d="M446.89,1.42A1.42,1.42,0,0,1,448.31,0h30.9a1.41,1.41,0,0,1,1.42,1.42V9.55A1.41,1.41,0,0,1,479.21,11H458.54V21.72h17A1.47,1.47,0,0,1,477,23.14v8.14a1.47,1.47,0,0,1-1.41,1.42h-17V50.83a1.47,1.47,0,0,1-1.42,1.42h-8.81a1.42,1.42,0,0,1-1.42-1.42Z" fill="url(#linear-gradient-4)"/>
            <path d="M488.39,1.42A1.42,1.42,0,0,1,489.81,0h30.9a1.42,1.42,0,0,1,1.42,1.42V9.55A1.42,1.42,0,0,1,520.71,11H500V21.72h17a1.47,1.47,0,0,1,1.41,1.42v8.14a1.47,1.47,0,0,1-1.41,1.42H500V50.83a1.47,1.47,0,0,1-1.42,1.42h-8.81a1.42,1.42,0,0,1-1.42-1.42Z" fill="url(#linear-gradient-5)"/>
            <path d="M540.57,27.1,524.07,2.17A1.38,1.38,0,0,1,525.26,0H535a1.48,1.48,0,0,1,1.19.67L546.54,16,556.91.67a1.39,1.39,0,0,1,1.2-.67h9.7A1.39,1.39,0,0,1,569,2.17L552.29,27V50.83a1.47,1.47,0,0,1-1.42,1.42H542a1.41,1.41,0,0,1-1.41-1.42Z" fill="url(#linear-gradient-6)"/>
          </g>
        </g>
        <g class="dropShadowWhite">
          <g class="dropShadow">>
            <path d="M11.93,11.56H1.4A1.4,1.4,0,0,1,0,10.16v-8A1.4,1.4,0,0,1,1.4.74H34.08a1.4,1.4,0,0,1,1.4,1.4v8a1.4,1.4,0,0,1-1.4,1.4H23.56v39.3a1.45,1.45,0,0,1-1.4,1.4H13.32a1.44,1.44,0,0,1-1.39-1.4Z" fill="#9e3223"/>
            <path d="M43.21,2.14a1.44,1.44,0,0,1,1.4-1.4h8.76a1.4,1.4,0,0,1,1.39,1.4V20.69H75.82V2.14a1.39,1.39,0,0,1,1.4-1.4H86a1.44,1.44,0,0,1,1.4,1.4V50.86a1.44,1.44,0,0,1-1.4,1.4H77.22a1.39,1.39,0,0,1-1.4-1.4V31.51H54.76V50.86a1.4,1.4,0,0,1-1.39,1.4H44.61a1.44,1.44,0,0,1-1.4-1.4Z" fill="#9e3223"/>
            <path d="M99,2.14a1.44,1.44,0,0,1,1.4-1.4h8.83a1.44,1.44,0,0,1,1.4,1.4V50.86a1.44,1.44,0,0,1-1.4,1.4H100.4a1.44,1.44,0,0,1-1.4-1.4Z" fill="#9e3223"/>
            <path d="M145.88,0A24.71,24.71,0,0,1,163.7,6.85a1.37,1.37,0,0,1,.07,2.06l-5.74,6a1.28,1.28,0,0,1-1.84,0,14.49,14.49,0,0,0-9.94-3.75c-8.32,0-14.42,6.92-14.42,15.16s6.18,14.94,14.5,14.94a14.45,14.45,0,0,0,9.86-3.53,1.46,1.46,0,0,1,1.91.07l5.75,6.11a1.48,1.48,0,0,1-.08,2A25.24,25.24,0,0,1,145.88,53a26.5,26.5,0,1,1,0-53Z" fill="#9e3223"/>
            <path d="M172.23,2.5A1.75,1.75,0,0,1,174,.74h8.61a1.79,1.79,0,0,1,1.77,1.76V22.16L200.72,1.47a2.16,2.16,0,0,1,1.4-.73h9.27a1.7,1.7,0,0,1,1.33,2.72L195.49,25.32l18.77,24.15a1.73,1.73,0,0,1-1.39,2.72H202.71a2,2,0,0,1-1.33-.51l-17-22.82V50.5a1.79,1.79,0,0,1-1.77,1.76H174a1.75,1.75,0,0,1-1.77-1.76Z" fill="#9e3223"/>
          </g>
          <g style="mix-blend-mode: multiply">
            <path d="M11.93,11.56H1.4A1.4,1.4,0,0,1,0,10.16v-8A1.4,1.4,0,0,1,1.4.74H34.08a1.4,1.4,0,0,1,1.4,1.4v8a1.4,1.4,0,0,1-1.4,1.4H23.56v39.3a1.45,1.45,0,0,1-1.4,1.4H13.32a1.44,1.44,0,0,1-1.39-1.4Z" fill="url(#linear-gradient-7)"/>
            <path d="M43.21,2.14a1.44,1.44,0,0,1,1.4-1.4h8.76a1.4,1.4,0,0,1,1.39,1.4V20.69H75.82V2.14a1.39,1.39,0,0,1,1.4-1.4H86a1.44,1.44,0,0,1,1.4,1.4V50.86a1.44,1.44,0,0,1-1.4,1.4H77.22a1.39,1.39,0,0,1-1.4-1.4V31.51H54.76V50.86a1.4,1.4,0,0,1-1.39,1.4H44.61a1.44,1.44,0,0,1-1.4-1.4Z" fill="url(#linear-gradient-8)"/>
            <path d="M99,2.14a1.44,1.44,0,0,1,1.4-1.4h8.83a1.44,1.44,0,0,1,1.4,1.4V50.86a1.44,1.44,0,0,1-1.4,1.4H100.4a1.44,1.44,0,0,1-1.4-1.4Z" fill="url(#linear-gradient-9)"/>
            <path d="M145.88,0A24.71,24.71,0,0,1,163.7,6.85a1.37,1.37,0,0,1,.07,2.06l-5.74,6a1.28,1.28,0,0,1-1.84,0,14.49,14.49,0,0,0-9.94-3.75c-8.32,0-14.42,6.92-14.42,15.16s6.18,14.94,14.5,14.94a14.45,14.45,0,0,0,9.86-3.53,1.46,1.46,0,0,1,1.91.07l5.75,6.11a1.48,1.48,0,0,1-.08,2A25.24,25.24,0,0,1,145.88,53a26.5,26.5,0,1,1,0-53Z" fill="url(#linear-gradient-10)"/>
            <path d="M172.23,2.5A1.75,1.75,0,0,1,174,.74h8.61a1.79,1.79,0,0,1,1.77,1.76V22.16L200.72,1.47a2.16,2.16,0,0,1,1.4-.73h9.27a1.7,1.7,0,0,1,1.33,2.72L195.49,25.32l18.77,24.15a1.73,1.73,0,0,1-1.39,2.72H202.71a2,2,0,0,1-1.33-.51l-17-22.82V50.5a1.79,1.79,0,0,1-1.77,1.76H174a1.75,1.75,0,0,1-1.77-1.76Z" fill="url(#linear-gradient-11)"/>
          </g>
        </g>
        <path d="M288.86,18.45a5.8,5.8,0,0,0-2.38-2.91,4.09,4.09,0,0,0-6.4,4c-.59.37-1.47.86-2.36,1.3-1.38.69-2.88,1.39-4.41,2.09h0l-.46.1c-.8.2-1.28.36-1.86.55a61.14,61.14,0,0,0-6.36,2.48,38,38,0,0,0-6.24,3.44,16.77,16.77,0,0,0-3,2.69,10.81,10.81,0,0,0-1.3,1.82,9.74,9.74,0,0,0-.54,1.07l-.21.55-.08.23c0,.05-.11.33-.15.48a2.21,2.21,0,0,0-.14.58,3.11,3.11,0,0,0,5.62,2.28l.06-.08.05-.07a5.92,5.92,0,0,0,.42-.75l.2-.33a4,4,0,0,1,.28-.32,8,8,0,0,1,.72-.68,13.42,13.42,0,0,1,2-1.29,44.13,44.13,0,0,1,5.32-2.23c1-.34,2-.67,3-1a14.17,14.17,0,0,1-.09,1.74,6.26,6.26,0,0,1-.45,1.81c0,.1-.06.11-.06.14l-.33.49c-.24.36-.5.69-.74,1a24.14,24.14,0,0,1-1.57,1.91,16.63,16.63,0,0,1-4.19,3.28,19.68,19.68,0,0,1-2.71,1.21l-1.45.5-.75.21a4.48,4.48,0,0,1-.6.13,18.27,18.27,0,0,1-5.76-.07,8.18,8.18,0,0,1-1.27-.3,6.37,6.37,0,0,1-1-.47,11.21,11.21,0,0,1-2.08-1.48,10.77,10.77,0,0,1-1.68-1.81,3.27,3.27,0,0,1-.45-.77,9,9,0,0,1-.37-.93,7.81,7.81,0,0,1-.52-3.39,7.91,7.91,0,0,1,1.95-3.39c.55-.7,1.21-1.44,1.91-2.2l1.69-1.84A9.3,9.3,0,0,1,254,26.48a12.29,12.29,0,0,1,1.94-.34,11.6,11.6,0,0,0,3.51.18h.24A2.91,2.91,0,0,0,261.24,21a10.49,10.49,0,0,0-1.86-.94,9.65,9.65,0,0,1-2.62-2.33,7.6,7.6,0,0,1-1.08-2.87c0-.18,0-.06-.05-.13a9.09,9.09,0,0,1,.32-1,5.08,5.08,0,0,1,.86-1.58,7.59,7.59,0,0,1,1.72-1.56,13.06,13.06,0,0,1,2.38-1.25,11.24,11.24,0,0,1,5.35-.65,10.42,10.42,0,0,1,2.47.64,6.67,6.67,0,0,1,1.9,1.17c.44.41.47.69.45.86a1.29,1.29,0,0,1-.11.37,1.23,1.23,0,0,1-.14.24c-.06.11.05-.14,0-.11s0,0-.05,0a3.18,3.18,0,0,1-1.37.6,1.26,1.26,0,0,1-1-.3,4.45,4.45,0,0,0-2.13-1,4.4,4.4,0,1,0-1.5,8.67l1.61.28a10,10,0,0,0,5.55-.66,10.78,10.78,0,0,0,4.11-3.1,6.53,6.53,0,0,0,.46-.65,5.91,5.91,0,0,0,.45-.84,8.18,8.18,0,0,0,.44-1.32,7.52,7.52,0,0,0,.18-2.93,7.86,7.86,0,0,0-2.73-4.84c-4.95-3.84-10.62-3.82-15.69-2.86A22.9,22.9,0,0,0,255.3,4a15.88,15.88,0,0,0-3.83,2.12,12.12,12.12,0,0,0-3.21,3.65,15.46,15.46,0,0,0-1,2.07,8.33,8.33,0,0,0-.55,3.16,11.36,11.36,0,0,0,1.2,5,13.71,13.71,0,0,0-2.83,1.39,8.39,8.39,0,0,0-1,.74l-.82.68-1.2,1.12c-.82.76-1.66,1.57-2.51,2.48a20.7,20.7,0,0,0-2.44,3.25,13.87,13.87,0,0,0-1.74,4.51,13.5,13.5,0,0,0,2,9A15.72,15.72,0,0,0,238.67,45a12.37,12.37,0,0,0,1.67,1.65,19,19,0,0,0,3.41,2.11,21.15,21.15,0,0,0,3.67,1.41,12.47,12.47,0,0,0,2.09.41,19,19,0,0,0,1.92.13,53.11,53.11,0,0,0,7.09-.43l1-.17.82-.17,1.66-.31c1.11-.26,2.26-.43,3.42-.75a21.46,21.46,0,0,0,7-2.93,19.76,19.76,0,0,0,3-2.58,17.6,17.6,0,0,0,1.25-1.49c.2-.28.36-.46.6-.82a9.17,9.17,0,0,0,.7-1.28,14.66,14.66,0,0,0,1.2-4.39,19.55,19.55,0,0,0,.1-4c0-.35-.09-.7-.13-1,.82-.28,1.64-.59,2.46-1a17.35,17.35,0,0,0,4.95-3.13,8,8,0,0,0,2.5-4.31A6.35,6.35,0,0,0,288.86,18.45Z" fill="#682018"/>
      </g>

</svg>
